<?xml version="1.0" encoding="utf-8"?>
<svg viewBox="0 0 97 96" fill="none" xmlns="http://www.w3.org/2000/svg">
  <defs>
    <clipPath id="clip0_104_636">
      <rect width="97" height="96" fill="white"/>
    </clipPath>
  </defs>
  <g clip-path="url(#clip0_104_636)">
    <path d="M90.3624 87.7921L87.8011 90.3535C85.9207 92.2279 83.3736 93.281 80.7181 93.2825H80.3384C77.5514 93.1749 74.9355 91.9103 73.1179 89.7959L58.5079 72.7479C57.4092 71.4677 57.4817 69.5558 58.6761 68.3623L61.2359 65.8009L55.5467 60.1103C43.6333 69.8511 26.5077 69.8511 14.5935 60.1103C0.763061 48.8023 -1.28255 28.4217 10.0277 14.5913C21.3357 0.761575 41.7163 -1.28403 55.5467 10.0262C69.3772 21.3327 71.422 41.7126 60.1125 55.543L65.8039 61.2344L68.3652 58.6738C69.5573 57.4803 71.4699 57.4063 72.7509 58.5057L89.7966 73.1171V73.1104C89.9909 73.2771 90.18 73.452 90.3624 73.6328C94.272 77.5432 94.272 83.8826 90.3624 87.7921ZM92.275 71.7031C92.0448 71.4744 91.8064 71.2554 91.5627 71.0446C91.5246 71.0147 74.5192 56.4429 74.5192 56.4429C73.4422 55.5191 72.067 55.0101 70.6492 55.0101C69.0581 55.0101 67.5655 55.6297 66.4437 56.7523L65.8039 57.3913L63.7127 55.3001C68.6021 48.3995 70.8129 40.0638 69.9602 31.5675C69.0252 22.2483 64.5177 13.8506 57.2657 7.92232C51.0198 2.81391 43.1438 0.000732422 35.0884 0.000732422C24.5129 0.000732422 14.6114 4.6921 7.9238 12.87C1.99551 20.122 -0.755636 29.2498 0.179348 38.569C1.11359 47.8883 5.62259 56.2859 12.873 62.2135C19.119 67.3204 27.0024 70.1313 35.0698 70.1313C42.3135 70.1313 49.4069 67.866 55.3008 63.7068L57.395 65.8009L56.7568 66.44C54.5699 68.6223 54.4339 72.171 56.4451 74.517L71.0581 91.565C73.357 94.2436 76.7009 95.8587 80.3384 96H80.7196C84.118 95.9985 87.3153 94.6756 89.7226 92.2742L92.2839 89.7129C97.2481 84.751 97.2481 76.6732 92.275 71.7031Z" style="fill: rgb(245, 158, 11);"/>
    <path d="M70.8167 65.3689L65.3577 70.8271L78.0245 85.6022C78.6643 86.3586 79.5933 86.8085 80.5821 86.8429C81.5724 86.881 82.5313 86.5028 83.2316 85.8033L85.7929 83.242C85.8556 83.1792 85.9154 83.1127 85.9737 83.0462C87.2525 81.5574 87.0806 79.313 85.5918 78.0357L70.8167 65.3689Z" style="fill: rgb(245, 158, 11);"/>
    <path d="M34.8398 9C34.4167 9 33.9946 9.0106 33.5723 9.0312C33.15 9.0519 32.727 9.0836 32.3066 9.1249C31.8861 9.1661 31.4674 9.2172 31.0488 9.2792C30.631 9.3411 30.2139 9.41425 29.7988 9.496C29.3847 9.5786 28.973 9.67191 28.5625 9.7753C28.1528 9.87768 27.7442 9.99009 27.3398 10.1132C26.9347 10.2363 26.5336 10.3667 26.1348 10.5097C25.7367 10.6516 25.3431 10.8049 24.9531 10.9667C24.5623 11.1284 24.1757 11.2997 23.793 11.4804C23.4112 11.6609 23.0329 11.8511 22.6602 12.0507C22.2873 12.2492 21.9196 12.4582 21.5566 12.6757C21.1936 12.8931 20.8356 13.1189 20.4844 13.3534C20.1321 13.5888 19.7877 13.8323 19.4473 14.0839C19.1075 14.3363 18.7762 14.5965 18.4492 14.8651C18.1222 15.1329 17.8018 15.4093 17.4883 15.6933C17.1748 15.9772 16.8686 16.2691 16.5703 16.5683C16.2711 16.8675 15.9793 17.1727 15.6953 17.4862C15.4114 17.7999 15.1339 18.1201 14.8652 18.4472C14.5975 18.7742 14.3375 19.1076 14.0859 19.4472C13.8335 19.7868 13.5908 20.133 13.3555 20.4843C13.1209 20.8355 12.8951 21.1925 12.6777 21.5546C12.4603 21.9175 12.2522 22.2853 12.0527 22.6581C11.8533 23.031 11.663 23.409 11.4824 23.7909C11.3009 24.1736 11.1306 24.5603 10.9688 24.9511C10.8062 25.3419 10.6537 25.7368 10.5117 26.1347C10.3688 26.5327 10.2354 26.9335 10.1133 27.3378C9.99018 27.7422 9.87877 28.1499 9.77539 28.5604C9.67296 28.9703 9.58063 29.3836 9.49804 29.7987C9.41534 30.2129 9.34328 30.6289 9.28125 31.0468C9.21935 31.4655 9.16635 31.8861 9.125 32.3065C9.0838 32.7279 9.0539 33.1479 9.0332 33.5702C9.0125 33.9925 9 34.4155 9 34.8378C9 35.2609 9.0125 35.6832 9.0332 36.1054C9.0539 36.5277 9.0838 36.9505 9.125 37.371C9.1663 37.7914 9.2193 38.2122 9.28125 38.6308C9.34325 39.0495 9.41534 39.4657 9.49804 39.8808C9.58064 40.2949 9.67296 40.7066 9.77539 41.1171C9.87877 41.5277 9.99018 41.9353 10.1133 42.3397C10.2354 42.7449 10.3688 43.1448 10.5117 43.5429C10.6537 43.9409 10.8062 44.3357 10.9688 44.7265C11.1306 45.1164 11.3009 45.5047 11.4824 45.8866C11.663 46.2694 11.8533 46.6466 12.0527 47.0194C12.2522 47.3923 12.4603 47.76 12.6777 48.123C12.8951 48.486 13.1209 48.843 13.3555 49.1952C13.5908 49.5465 13.8335 49.8908 14.0859 50.2304C14.3375 50.5701 14.5975 50.9042 14.8652 51.2304C15.1339 51.5575 15.4114 51.8786 15.6953 52.1913C15.9793 52.5048 16.2711 52.8101 16.5703 53.1093C16.8686 53.4075 17.1748 53.7003 17.4883 53.9843C17.8018 54.2682 18.1222 54.5437 18.4492 54.8124C18.7762 55.0801 19.1075 55.3402 19.4473 55.5917C19.7877 55.8442 20.1321 56.0878 20.4844 56.3222C20.8356 56.5577 21.1936 56.7845 21.5566 57.0019C21.9196 57.2193 22.2873 57.4274 22.6602 57.6269C23.0329 57.8263 23.4112 58.0157 23.793 58.1972C24.1757 58.3777 24.5623 58.5491 24.9531 58.7108C25.3431 58.8725 25.7367 59.0251 26.1348 59.1679C26.5336 59.3098 26.9347 59.4422 27.3398 59.5644C27.7442 59.6875 28.1528 59.8018 28.5625 59.9042C28.973 60.0066 29.3847 60.099 29.7988 60.1815C30.2139 60.2642 30.631 60.3363 31.0488 60.3983C31.4674 60.4612 31.8861 60.5113 32.3066 60.5526C32.727 60.5938 33.15 60.6257 33.5723 60.6463C33.9946 60.667 34.4167 60.6775 34.8398 60.6775C35.2631 60.6775 35.6851 60.6669 36.1074 60.6463C36.5297 60.6256 36.9517 60.5938 37.373 60.5526C37.7935 60.5112 38.2121 60.4612 38.6309 60.3983C39.0487 60.3363 39.4667 60.2643 39.8809 60.1815C40.296 60.099 40.7086 60.0066 41.1191 59.9042C41.5288 59.8018 41.9354 59.6875 42.3398 59.5644C42.7441 59.4422 43.1469 59.3098 43.5449 59.1679C43.943 59.0251 44.3377 58.8725 44.7285 58.7108C45.1193 58.5491 45.5059 58.3777 45.8887 58.1972C46.2705 58.0157 46.6477 57.8263 47.0215 57.6269C47.3944 57.4274 47.7601 57.2193 48.123 57.0019C48.4851 56.7845 48.844 56.5577 49.1953 56.3222C49.5475 56.0878 49.8928 55.8442 50.2324 55.5917C50.572 55.3402 50.9054 55.0801 51.2324 54.8124C51.5595 54.5437 51.8779 54.2682 52.1914 53.9843C52.5049 53.7003 52.8121 53.4075 53.1113 53.1093C53.4105 52.8101 53.7015 52.5048 53.9863 52.1913C54.2703 51.8786 54.5458 51.5575 54.8144 51.2304C55.0822 50.9042 55.3421 50.5701 55.5938 50.2304C55.8454 49.8908 56.0889 49.5465 56.3242 49.1952C56.5588 48.843 56.7845 48.486 57.0019 48.123C57.2194 47.76 57.4295 47.3923 57.6289 47.0194C57.8275 46.6466 58.0167 46.2694 58.1973 45.8866C58.3788 45.5047 58.5491 45.1164 58.7109 44.7265C58.8726 44.3357 59.026 43.9409 59.168 43.5429C59.3109 43.1448 59.4433 42.7449 59.5664 42.3397C59.6895 41.9353 59.8009 41.5277 59.9043 41.1171C60.0067 40.7066 60.0991 40.2949 60.1816 39.8808C60.2643 39.4657 60.3365 39.0495 60.3984 38.6308C60.4604 38.2122 60.5134 37.7914 60.5547 37.371C60.5961 36.9505 60.6278 36.5277 60.6484 36.1054C60.6691 35.6832 60.6777 35.2609 60.6777 34.8378C60.6777 34.4155 60.6687 33.9925 60.6484 33.5702C60.6277 33.1479 60.596 32.7279 60.5547 32.3065C60.5135 31.8861 60.4605 31.4655 60.3984 31.0468C60.3365 30.6289 60.2643 30.2129 60.1816 29.7987C60.099 29.3836 60.0067 28.9703 59.9043 28.5604C59.8009 28.1499 59.6895 27.7422 59.5664 27.3378C59.4433 26.9335 59.3109 26.5327 59.168 26.1347C59.026 25.7368 58.8726 25.3419 58.7109 24.9511C58.5491 24.5603 58.3788 24.1736 58.1973 23.7909C58.0167 23.409 57.8275 23.031 57.6289 22.6581C57.4295 22.2853 57.2194 21.9175 57.0019 21.5546C56.7845 21.1925 56.5588 20.8355 56.3242 20.4843C56.0889 20.133 55.8454 19.7868 55.5938 19.4472C55.3421 19.1076 55.0822 18.7742 54.8144 18.4472C54.5458 18.1201 54.2703 17.7999 53.9863 17.4862C53.7015 17.1727 53.4105 16.8675 53.1113 16.5683C52.8121 16.2691 52.5049 15.9772 52.1914 15.6933C51.8779 15.4093 51.5595 15.1329 51.2324 14.8651C50.9054 14.5965 50.572 14.3363 50.2324 14.0839C49.8928 13.8323 49.5475 13.5888 49.1953 13.3534C48.844 13.1189 48.4851 12.8931 48.123 12.6757C47.7601 12.4582 47.3944 12.2492 47.0215 12.0507C46.6486 11.8511 46.2705 11.6609 45.8887 11.4804C45.5059 11.2997 45.1193 11.1284 44.7285 10.9667C44.3377 10.8049 43.943 10.6516 43.5449 10.5097C43.1469 10.3667 42.7441 10.2363 42.3398 10.1132C41.9354 9.99009 41.5288 9.87768 41.1191 9.7753C40.7086 9.67191 40.296 9.57859 39.8809 9.496C39.4667 9.4143 39.0487 9.34111 38.6309 9.2792C38.2121 9.2172 37.7935 9.16614 37.373 9.1249C36.9517 9.0835 36.5297 9.0518 36.1074 9.0312C35.6851 9.0105 35.2631 9 34.8398 9ZM41.4101 20.2988C47.5806 20.413 46.3816 32.3099 39.7188 31.6016C34.0939 31.003 35.1895 21.5075 40.0781 20.4395C40.5556 20.3351 40.9988 20.2912 41.4101 20.2988ZM29.5605 20.3867C35.8938 20.2305 36.2258 31.8926 30.0078 31.6016C24.8486 31.3594 22.902 21.2855 28.9297 20.4395C29.1464 20.4091 29.3563 20.3917 29.5605 20.3867ZM49.5762 27.918C51.2118 27.8285 53.0143 28.4792 53.7441 29.8008C56.0446 33.969 51.805 39.064 47.6309 38.6231C45.3386 38.3824 44.0147 36.4274 43.8555 34.6621C43.5139 30.8803 46.2097 28.5214 48.8906 28.002C49.1139 27.9587 49.3425 27.9308 49.5762 27.918ZM20.4785 27.9356C23.7863 27.9792 27.6467 30.8962 26.4121 35.3829C23.6954 41.3201 15.4165 37.1245 16.3418 31.2403C16.7073 28.9165 18.4938 27.9094 20.4785 27.9356ZM35.75 33.4336C41.0602 33.68 45.3481 38.0031 44.2148 44.7442C43.9465 46.3391 42.5738 48.5937 40.6172 48.7051C39.0372 48.7955 37.1909 47.2539 35.2246 47.2637C32.7821 47.2756 30.8565 49.4451 28.5703 48.3457C26.6502 47.4212 25.8729 43.6839 26.2324 40.9649C26.7488 37.0441 29.6271 34.2376 33.4238 33.5821C34.2114 33.446 34.9914 33.3984 35.75 33.4336Z" style="fill: rgb(245, 158, 11);"/>
  </g>
</svg>