<svg xmlns="http://www.w3.org/2000/svg" xmlns:xlink="http://www.w3.org/1999/xlink" width="300" zoomAndPan="magnify" viewBox="0 0 224.87999 52.499999" height="70" preserveAspectRatio="xMidYMid meet" version="1.0"><defs><g/><clipPath id="1358792e52"><path d="M 7 1.082031 L 54.492188 1.082031 L 54.492188 47 L 7 47 Z M 7 1.082031 " clip-rule="nonzero"/></clipPath></defs><g clip-path="url(#1358792e52)"><path fill="#fbbf24" d="M 38.972656 1.125 C 38.875 1.128906 38.773438 1.132812 38.671875 1.140625 C 34.660156 1.832031 32.457031 6.074219 32.136719 9.8125 C 31.671875 13.203125 33.164062 17.566406 36.890625 18.324219 C 37.429688 18.429688 37.992188 18.382812 38.519531 18.238281 C 43.007812 16.734375 45.015625 11.421875 44.367188 7.019531 C 44.175781 4.179688 42.035156 1.085938 38.972656 1.125 Z M 21.972656 1.308594 C 19.476562 1.371094 17.535156 3.898438 17.140625 6.277344 C 16.308594 10.984375 18.449219 16.835938 23.355469 18.328125 C 23.816406 18.425781 24.292969 18.4375 24.757812 18.363281 C 28.070312 17.8125 29.476562 14.09375 29.339844 11.09375 C 29.238281 7.132812 27.183594 2.554688 23.070312 1.441406 C 22.695312 1.34375 22.328125 1.300781 21.972656 1.308594 Z M 49.835938 14.683594 C 45.523438 14.941406 42.566406 19.246094 42.144531 23.265625 C 41.574219 26.164062 43.117188 30.039062 46.425781 30.269531 C 51.035156 30.214844 54.183594 25.285156 54.3125 21.046875 C 54.605469 18.242188 52.953125 14.839844 49.835938 14.683594 Z M 12.082031 15.640625 C 10.25 15.625 8.445312 16.722656 7.84375 18.589844 C 6.246094 23.578125 9.457031 29.898438 14.742188 30.945312 C 16.949219 31.324219 18.886719 29.628906 19.433594 27.59375 C 20.589844 23.234375 18.210938 18.171875 14.183594 16.191406 C 13.527344 15.824219 12.800781 15.648438 12.082031 15.640625 Z M 31.417969 24.585938 C 27.824219 24.59375 24.167969 26.421875 21.839844 29.136719 C 19.324219 32.304688 17.261719 35.992188 16.457031 39.988281 C 15.476562 42.867188 17.695312 46.175781 20.773438 46.195312 C 24.472656 46.300781 27.652344 43.757812 31.332031 43.570312 C 34.453125 43.09375 37.25 44.71875 40.054688 45.78125 C 42.445312 46.804688 45.746094 46.410156 46.96875 43.839844 C 47.925781 41.21875 46.515625 38.421875 45.34375 36.09375 C 42.957031 32.316406 40.402344 28.34375 36.488281 25.988281 C 34.917969 25.015625 33.175781 24.582031 31.417969 24.585938 Z M 31.417969 24.585938 " fill-opacity="1" fill-rule="nonzero"/></g><g fill="#3c424b" fill-opacity="1"><g transform="translate(62.505278, 37.120934)"><g><path d="M 20.109375 -0.71875 C 20.109375 -0.238281 19.859375 0 19.359375 0 L 17.5625 0 C 16.570312 0 15.835938 -0.207031 15.359375 -0.625 C 14.890625 -1.039062 14.59375 -1.570312 14.46875 -2.21875 L 14.390625 -2.21875 C 13.816406 -1.46875 13.03125 -0.832031 12.03125 -0.3125 C 11.039062 0.195312 10.003906 0.453125 8.921875 0.453125 C 7.597656 0.453125 6.453125 0.203125 5.484375 -0.296875 C 4.515625 -0.804688 3.707031 -1.484375 3.0625 -2.328125 C 2.425781 -3.179688 1.957031 -4.164062 1.65625 -5.28125 C 1.351562 -6.40625 1.203125 -7.582031 1.203125 -8.8125 C 1.203125 -10.445312 1.425781 -11.882812 1.875 -13.125 C 2.332031 -14.375 2.9375 -15.410156 3.6875 -16.234375 C 4.445312 -17.066406 5.316406 -17.695312 6.296875 -18.125 C 7.273438 -18.550781 8.289062 -18.765625 9.34375 -18.765625 C 10.34375 -18.765625 11.273438 -18.5625 12.140625 -18.15625 C 13.015625 -17.757812 13.691406 -17.234375 14.171875 -16.578125 L 14.234375 -17.59375 C 14.285156 -18.039062 14.550781 -18.265625 15.03125 -18.265625 L 17.671875 -18.265625 C 18.191406 -18.265625 18.453125 -17.988281 18.453125 -17.4375 L 18.453125 -4.140625 C 18.453125 -3.785156 18.492188 -3.523438 18.578125 -3.359375 C 18.671875 -3.203125 18.859375 -3.125 19.140625 -3.125 L 19.4375 -3.125 C 19.882812 -3.125 20.109375 -2.910156 20.109375 -2.484375 Z M 13.90625 -13.109375 C 13.519531 -13.660156 12.984375 -14.117188 12.296875 -14.484375 C 11.609375 -14.847656 10.898438 -15.03125 10.171875 -15.03125 C 9.597656 -15.03125 9.050781 -14.90625 8.53125 -14.65625 C 8.019531 -14.40625 7.566406 -14.035156 7.171875 -13.546875 C 6.785156 -13.054688 6.476562 -12.4375 6.25 -11.6875 C 6.03125 -10.945312 5.921875 -10.085938 5.921875 -9.109375 C 5.921875 -8.304688 5.992188 -7.550781 6.140625 -6.84375 C 6.285156 -6.144531 6.519531 -5.53125 6.84375 -5 C 7.175781 -4.476562 7.59375 -4.0625 8.09375 -3.75 C 8.601562 -3.4375 9.207031 -3.28125 9.90625 -3.28125 C 10.351562 -3.28125 10.789062 -3.359375 11.21875 -3.515625 C 11.644531 -3.679688 12.035156 -3.882812 12.390625 -4.125 C 12.742188 -4.363281 13.046875 -4.632812 13.296875 -4.9375 C 13.546875 -5.238281 13.75 -5.539062 13.90625 -5.84375 Z M 13.90625 -13.109375 "/></g></g></g><g fill="#3c424b" fill-opacity="1"><g transform="translate(83.52087, 37.120934)"><g><path d="M 18.609375 -0.9375 C 18.609375 -0.613281 18.523438 -0.375 18.359375 -0.21875 C 18.203125 -0.0703125 18.007812 0 17.78125 0 L 15.328125 0 C 14.773438 0 14.472656 -0.25 14.421875 -0.75 L 14.359375 -1.765625 C 13.828125 -1.160156 13.082031 -0.640625 12.125 -0.203125 C 11.175781 0.234375 10.210938 0.453125 9.234375 0.453125 C 7.878906 0.453125 6.695312 0.203125 5.6875 -0.296875 C 4.6875 -0.804688 3.859375 -1.484375 3.203125 -2.328125 C 2.546875 -3.179688 2.0625 -4.179688 1.75 -5.328125 C 1.4375 -6.472656 1.28125 -7.671875 1.28125 -8.921875 C 1.28125 -10.234375 1.460938 -11.484375 1.828125 -12.671875 C 2.191406 -13.867188 2.71875 -14.914062 3.40625 -15.8125 C 4.09375 -16.71875 4.953125 -17.4375 5.984375 -17.96875 C 7.015625 -18.5 8.195312 -18.765625 9.53125 -18.765625 C 10.382812 -18.765625 11.21875 -18.601562 12.03125 -18.28125 C 12.851562 -17.96875 13.523438 -17.535156 14.046875 -16.984375 L 14.046875 -25.5 C 14.046875 -25.800781 14.097656 -26.035156 14.203125 -26.203125 C 14.304688 -26.367188 14.507812 -26.472656 14.8125 -26.515625 L 17.859375 -26.9375 C 18.054688 -26.957031 18.226562 -26.921875 18.375 -26.828125 C 18.53125 -26.742188 18.609375 -26.550781 18.609375 -26.25 Z M 14.046875 -13.265625 C 13.671875 -13.765625 13.15625 -14.195312 12.5 -14.5625 C 11.851562 -14.925781 11.164062 -15.109375 10.4375 -15.109375 C 9.6875 -15.109375 9.023438 -14.941406 8.453125 -14.609375 C 7.890625 -14.285156 7.429688 -13.847656 7.078125 -13.296875 C 6.734375 -12.742188 6.472656 -12.113281 6.296875 -11.40625 C 6.117188 -10.707031 6.03125 -9.96875 6.03125 -9.1875 C 6.03125 -8.414062 6.101562 -7.671875 6.25 -6.953125 C 6.40625 -6.234375 6.644531 -5.597656 6.96875 -5.046875 C 7.289062 -4.492188 7.722656 -4.050781 8.265625 -3.71875 C 8.804688 -3.394531 9.453125 -3.234375 10.203125 -3.234375 C 10.910156 -3.234375 11.632812 -3.425781 12.375 -3.8125 C 13.113281 -4.207031 13.671875 -4.644531 14.046875 -5.125 Z M 14.046875 -13.265625 "/></g></g></g><g fill="#3c424b" fill-opacity="1"><g transform="translate(104.498802, 37.120934)"><g><path d="M 19.4375 -9.15625 C 19.4375 -7.800781 19.234375 -6.535156 18.828125 -5.359375 C 18.429688 -4.191406 17.835938 -3.175781 17.046875 -2.3125 C 16.253906 -1.445312 15.285156 -0.769531 14.140625 -0.28125 C 13.003906 0.207031 11.707031 0.453125 10.25 0.453125 C 8.71875 0.453125 7.382812 0.207031 6.25 -0.28125 C 5.125 -0.769531 4.195312 -1.445312 3.46875 -2.3125 C 2.738281 -3.175781 2.191406 -4.191406 1.828125 -5.359375 C 1.460938 -6.535156 1.28125 -7.8125 1.28125 -9.1875 C 1.28125 -10.539062 1.476562 -11.800781 1.875 -12.96875 C 2.28125 -14.144531 2.878906 -15.160156 3.671875 -16.015625 C 4.460938 -16.867188 5.421875 -17.539062 6.546875 -18.03125 C 7.679688 -18.519531 8.988281 -18.765625 10.46875 -18.765625 C 12 -18.765625 13.328125 -18.523438 14.453125 -18.046875 C 15.585938 -17.566406 16.519531 -16.898438 17.25 -16.046875 C 17.976562 -15.191406 18.523438 -14.171875 18.890625 -12.984375 C 19.253906 -11.804688 19.4375 -10.53125 19.4375 -9.15625 Z M 14.734375 -9.15625 C 14.734375 -9.9375 14.660156 -10.679688 14.515625 -11.390625 C 14.378906 -12.109375 14.144531 -12.75 13.8125 -13.3125 C 13.488281 -13.882812 13.050781 -14.335938 12.5 -14.671875 C 11.945312 -15.015625 11.257812 -15.1875 10.4375 -15.1875 C 9.601562 -15.1875 8.894531 -15.015625 8.3125 -14.671875 C 7.738281 -14.335938 7.28125 -13.898438 6.9375 -13.359375 C 6.601562 -12.816406 6.359375 -12.1875 6.203125 -11.46875 C 6.054688 -10.75 5.984375 -10.015625 5.984375 -9.265625 C 5.984375 -8.484375 6.050781 -7.726562 6.1875 -7 C 6.332031 -6.28125 6.566406 -5.628906 6.890625 -5.046875 C 7.222656 -4.472656 7.664062 -4.007812 8.21875 -3.65625 C 8.769531 -3.300781 9.457031 -3.125 10.28125 -3.125 C 11.113281 -3.125 11.8125 -3.289062 12.375 -3.625 C 12.9375 -3.96875 13.394531 -4.421875 13.75 -4.984375 C 14.101562 -5.554688 14.351562 -6.195312 14.5 -6.90625 C 14.65625 -7.625 14.734375 -8.375 14.734375 -9.15625 Z M 14.734375 -9.15625 "/></g></g></g><g fill="#3c424b" fill-opacity="1"><g transform="translate(125.213096, 37.120934)"><g><path d="M 7.796875 -18.265625 L 12.0625 -18.265625 C 12.53125 -18.265625 12.765625 -18.050781 12.765625 -17.625 L 12.765625 -15.859375 C 12.765625 -15.378906 12.515625 -15.140625 12.015625 -15.140625 L 7.796875 -15.140625 L 7.796875 -6.515625 C 7.796875 -5.941406 7.828125 -5.445312 7.890625 -5.03125 C 7.953125 -4.613281 8.082031 -4.253906 8.28125 -3.953125 C 8.457031 -3.703125 8.679688 -3.507812 8.953125 -3.375 C 9.234375 -3.238281 9.601562 -3.171875 10.0625 -3.171875 C 10.539062 -3.171875 10.972656 -3.210938 11.359375 -3.296875 C 11.742188 -3.378906 12.113281 -3.484375 12.46875 -3.609375 C 12.664062 -3.660156 12.847656 -3.679688 13.015625 -3.671875 C 13.179688 -3.660156 13.285156 -3.515625 13.328125 -3.234375 L 13.71875 -1.359375 C 13.8125 -0.929688 13.632812 -0.617188 13.1875 -0.421875 C 12.601562 -0.160156 11.941406 0.046875 11.203125 0.203125 C 10.460938 0.367188 9.71875 0.453125 8.96875 0.453125 C 8.007812 0.453125 7.132812 0.328125 6.34375 0.078125 C 5.550781 -0.171875 4.914062 -0.570312 4.4375 -1.125 C 4.144531 -1.457031 3.914062 -1.804688 3.75 -2.171875 C 3.582031 -2.535156 3.460938 -2.941406 3.390625 -3.390625 C 3.316406 -3.835938 3.269531 -4.335938 3.25 -4.890625 C 3.238281 -5.441406 3.234375 -6.0625 3.234375 -6.75 L 3.234375 -15.140625 L 1.46875 -15.140625 C 1.113281 -15.140625 0.882812 -15.195312 0.78125 -15.3125 C 0.6875 -15.425781 0.640625 -15.679688 0.640625 -16.078125 L 0.640625 -17.515625 C 0.640625 -18.015625 0.863281 -18.265625 1.3125 -18.265625 L 3.234375 -18.265625 L 3.234375 -22.21875 C 3.234375 -22.519531 3.285156 -22.753906 3.390625 -22.921875 C 3.492188 -23.085938 3.695312 -23.195312 4 -23.25 L 7.046875 -23.65625 C 7.242188 -23.6875 7.414062 -23.65625 7.5625 -23.5625 C 7.71875 -23.476562 7.796875 -23.285156 7.796875 -22.984375 Z M 7.796875 -18.265625 "/></g></g></g><g fill="#3c424b" fill-opacity="1"><g transform="translate(139.524788, 37.120934)"><g><path d="M 11.453125 -3.203125 C 12.253906 -3.203125 13.046875 -3.28125 13.828125 -3.4375 C 14.609375 -3.601562 15.359375 -3.828125 16.078125 -4.109375 C 16.378906 -4.234375 16.597656 -4.253906 16.734375 -4.171875 C 16.878906 -4.097656 16.976562 -3.960938 17.03125 -3.765625 L 17.5625 -1.84375 C 17.632812 -1.59375 17.640625 -1.378906 17.578125 -1.203125 C 17.515625 -1.023438 17.332031 -0.875 17.03125 -0.75 C 16.101562 -0.320312 15.0625 -0.015625 13.90625 0.171875 C 12.75 0.359375 11.679688 0.453125 10.703125 0.453125 C 9.210938 0.453125 7.882812 0.226562 6.71875 -0.21875 C 5.550781 -0.675781 4.566406 -1.320312 3.765625 -2.15625 C 2.960938 -3 2.347656 -4.007812 1.921875 -5.1875 C 1.492188 -6.375 1.28125 -7.707031 1.28125 -9.1875 C 1.28125 -10.59375 1.503906 -11.882812 1.953125 -13.0625 C 2.410156 -14.25 3.046875 -15.257812 3.859375 -16.09375 C 4.671875 -16.9375 5.648438 -17.59375 6.796875 -18.0625 C 7.941406 -18.53125 9.21875 -18.765625 10.625 -18.765625 C 11.78125 -18.765625 12.820312 -18.5625 13.75 -18.15625 C 14.675781 -17.757812 15.46875 -17.207031 16.125 -16.5 C 17 -15.59375 17.585938 -14.5625 17.890625 -13.40625 C 18.191406 -12.25 18.34375 -11.03125 18.34375 -9.75 L 18.34375 -9.1875 C 18.34375 -8.738281 18.253906 -8.441406 18.078125 -8.296875 C 17.898438 -8.160156 17.578125 -8.09375 17.109375 -8.09375 L 6.0625 -8.09375 C 6.21875 -6.644531 6.773438 -5.46875 7.734375 -4.5625 C 8.703125 -3.65625 9.941406 -3.203125 11.453125 -3.203125 Z M 13.859375 -11.078125 L 13.859375 -11.484375 C 13.835938 -11.960938 13.75 -12.429688 13.59375 -12.890625 C 13.445312 -13.359375 13.226562 -13.757812 12.9375 -14.09375 C 12.644531 -14.4375 12.285156 -14.710938 11.859375 -14.921875 C 11.429688 -15.140625 10.929688 -15.25 10.359375 -15.25 C 9.753906 -15.25 9.207031 -15.132812 8.71875 -14.90625 C 8.226562 -14.6875 7.800781 -14.378906 7.4375 -13.984375 C 7.070312 -13.597656 6.78125 -13.15625 6.5625 -12.65625 C 6.351562 -12.15625 6.210938 -11.628906 6.140625 -11.078125 Z M 13.859375 -11.078125 "/></g></g></g><g fill="#3c424b" fill-opacity="1"><g transform="translate(158.920899, 37.120934)"><g><path d="M 19.703125 -9.421875 C 19.703125 -7.984375 19.492188 -6.632812 19.078125 -5.375 C 18.660156 -4.125 18.050781 -3.035156 17.25 -2.109375 C 16.550781 -1.304688 15.71875 -0.675781 14.75 -0.21875 C 13.78125 0.226562 12.679688 0.453125 11.453125 0.453125 C 10.578125 0.453125 9.734375 0.300781 8.921875 0 C 8.117188 -0.300781 7.441406 -0.738281 6.890625 -1.3125 L 6.890625 7.15625 C 6.890625 7.53125 6.804688 7.785156 6.640625 7.921875 C 6.484375 8.066406 6.242188 8.140625 5.921875 8.140625 L 3.28125 8.140625 C 2.675781 8.140625 2.375 7.8125 2.375 7.15625 L 2.375 -17.40625 C 2.375 -17.976562 2.675781 -18.265625 3.28125 -18.265625 L 5.53125 -18.265625 C 5.863281 -18.265625 6.109375 -18.210938 6.265625 -18.109375 C 6.429688 -18.015625 6.53125 -17.832031 6.5625 -17.5625 L 6.59375 -16.578125 C 7.144531 -17.203125 7.90625 -17.722656 8.875 -18.140625 C 9.84375 -18.554688 10.835938 -18.765625 11.859375 -18.765625 C 13.117188 -18.765625 14.1875 -18.550781 15.0625 -18.125 C 15.945312 -17.695312 16.703125 -17.144531 17.328125 -16.46875 C 18.128906 -15.582031 18.722656 -14.519531 19.109375 -13.28125 C 19.503906 -12.039062 19.703125 -10.753906 19.703125 -9.421875 Z M 14.953125 -9.1875 C 14.953125 -10.070312 14.863281 -10.890625 14.6875 -11.640625 C 14.507812 -12.390625 14.234375 -13.03125 13.859375 -13.5625 C 13.128906 -14.59375 12.101562 -15.109375 10.78125 -15.109375 C 10.070312 -15.109375 9.335938 -14.914062 8.578125 -14.53125 C 7.828125 -14.15625 7.265625 -13.734375 6.890625 -13.265625 L 6.890625 -5.046875 C 7.265625 -4.546875 7.789062 -4.113281 8.46875 -3.75 C 9.15625 -3.382812 9.859375 -3.203125 10.578125 -3.203125 C 11.234375 -3.203125 11.816406 -3.332031 12.328125 -3.59375 C 12.847656 -3.863281 13.269531 -4.195312 13.59375 -4.59375 C 14.070312 -5.175781 14.414062 -5.851562 14.625 -6.625 C 14.84375 -7.40625 14.953125 -8.257812 14.953125 -9.1875 Z M 14.953125 -9.1875 "/></g></g></g><g fill="#3c424b" fill-opacity="1"><g transform="translate(179.898831, 37.120934)"><g><path d="M 11.453125 -3.203125 C 12.253906 -3.203125 13.046875 -3.28125 13.828125 -3.4375 C 14.609375 -3.601562 15.359375 -3.828125 16.078125 -4.109375 C 16.378906 -4.234375 16.597656 -4.253906 16.734375 -4.171875 C 16.878906 -4.097656 16.976562 -3.960938 17.03125 -3.765625 L 17.5625 -1.84375 C 17.632812 -1.59375 17.640625 -1.378906 17.578125 -1.203125 C 17.515625 -1.023438 17.332031 -0.875 17.03125 -0.75 C 16.101562 -0.320312 15.0625 -0.015625 13.90625 0.171875 C 12.75 0.359375 11.679688 0.453125 10.703125 0.453125 C 9.210938 0.453125 7.882812 0.226562 6.71875 -0.21875 C 5.550781 -0.675781 4.566406 -1.320312 3.765625 -2.15625 C 2.960938 -3 2.347656 -4.007812 1.921875 -5.1875 C 1.492188 -6.375 1.28125 -7.707031 1.28125 -9.1875 C 1.28125 -10.59375 1.503906 -11.882812 1.953125 -13.0625 C 2.410156 -14.25 3.046875 -15.257812 3.859375 -16.09375 C 4.671875 -16.9375 5.648438 -17.59375 6.796875 -18.0625 C 7.941406 -18.53125 9.21875 -18.765625 10.625 -18.765625 C 11.78125 -18.765625 12.820312 -18.5625 13.75 -18.15625 C 14.675781 -17.757812 15.46875 -17.207031 16.125 -16.5 C 17 -15.59375 17.585938 -14.5625 17.890625 -13.40625 C 18.191406 -12.25 18.34375 -11.03125 18.34375 -9.75 L 18.34375 -9.1875 C 18.34375 -8.738281 18.253906 -8.441406 18.078125 -8.296875 C 17.898438 -8.160156 17.578125 -8.09375 17.109375 -8.09375 L 6.0625 -8.09375 C 6.21875 -6.644531 6.773438 -5.46875 7.734375 -4.5625 C 8.703125 -3.65625 9.941406 -3.203125 11.453125 -3.203125 Z M 13.859375 -11.078125 L 13.859375 -11.484375 C 13.835938 -11.960938 13.75 -12.429688 13.59375 -12.890625 C 13.445312 -13.359375 13.226562 -13.757812 12.9375 -14.09375 C 12.644531 -14.4375 12.285156 -14.710938 11.859375 -14.921875 C 11.429688 -15.140625 10.929688 -15.25 10.359375 -15.25 C 9.753906 -15.25 9.207031 -15.132812 8.71875 -14.90625 C 8.226562 -14.6875 7.800781 -14.378906 7.4375 -13.984375 C 7.070312 -13.597656 6.78125 -13.15625 6.5625 -12.65625 C 6.351562 -12.15625 6.210938 -11.628906 6.140625 -11.078125 Z M 13.859375 -11.078125 "/></g></g></g><g fill="#3c424b" fill-opacity="1"><g transform="translate(199.294942, 37.120934)"><g><path d="M 7.796875 -18.265625 L 12.0625 -18.265625 C 12.53125 -18.265625 12.765625 -18.050781 12.765625 -17.625 L 12.765625 -15.859375 C 12.765625 -15.378906 12.515625 -15.140625 12.015625 -15.140625 L 7.796875 -15.140625 L 7.796875 -6.515625 C 7.796875 -5.941406 7.828125 -5.445312 7.890625 -5.03125 C 7.953125 -4.613281 8.082031 -4.253906 8.28125 -3.953125 C 8.457031 -3.703125 8.679688 -3.507812 8.953125 -3.375 C 9.234375 -3.238281 9.601562 -3.171875 10.0625 -3.171875 C 10.539062 -3.171875 10.972656 -3.210938 11.359375 -3.296875 C 11.742188 -3.378906 12.113281 -3.484375 12.46875 -3.609375 C 12.664062 -3.660156 12.847656 -3.679688 13.015625 -3.671875 C 13.179688 -3.660156 13.285156 -3.515625 13.328125 -3.234375 L 13.71875 -1.359375 C 13.8125 -0.929688 13.632812 -0.617188 13.1875 -0.421875 C 12.601562 -0.160156 11.941406 0.046875 11.203125 0.203125 C 10.460938 0.367188 9.71875 0.453125 8.96875 0.453125 C 8.007812 0.453125 7.132812 0.328125 6.34375 0.078125 C 5.550781 -0.171875 4.914062 -0.570312 4.4375 -1.125 C 4.144531 -1.457031 3.914062 -1.804688 3.75 -2.171875 C 3.582031 -2.535156 3.460938 -2.941406 3.390625 -3.390625 C 3.316406 -3.835938 3.269531 -4.335938 3.25 -4.890625 C 3.238281 -5.441406 3.234375 -6.0625 3.234375 -6.75 L 3.234375 -15.140625 L 1.46875 -15.140625 C 1.113281 -15.140625 0.882812 -15.195312 0.78125 -15.3125 C 0.6875 -15.425781 0.640625 -15.679688 0.640625 -16.078125 L 0.640625 -17.515625 C 0.640625 -18.015625 0.863281 -18.265625 1.3125 -18.265625 L 3.234375 -18.265625 L 3.234375 -22.21875 C 3.234375 -22.519531 3.285156 -22.753906 3.390625 -22.921875 C 3.492188 -23.085938 3.695312 -23.195312 4 -23.25 L 7.046875 -23.65625 C 7.242188 -23.6875 7.414062 -23.65625 7.5625 -23.5625 C 7.71875 -23.476562 7.796875 -23.285156 7.796875 -22.984375 Z M 7.796875 -18.265625 "/></g></g></g></svg>