<?xml version="1.0" encoding="utf-8"?>
<svg viewBox="-322.2908 -1382.2207 2487.152 2197.0827" width="2487.15px" height="2197.08px" preserveAspectRatio="none" xmlns="http://www.w3.org/2000/svg" xmlns:bx="https://boxy-svg.com"><defs><bx:export><bx:file format="svg"/></bx:export></defs><path d="M -2457.677 -621.782 C -3663.69 781.944 -4058.116 2867.484 -3372.221 4586.305 C -3058.324 5372.95 -2540.935 6111.694 -2510.963 6958.138 C -2476.88 7922.096 -3080.077 8777.258 -3383.947 9692.679 C -4015.99 11596.686 -3193.731 13881.646 -1493.366 14946.327 C 206.999 16010.973 2621.628 15752.774 4058.41 14352.625 C 4900.711 13531.865 5429.294 12379.322 6433.251 11766.774 C 7225.844 11283.181 8191.506 11213.283 9104.415 11043.866 C 10017.319 10874.486 10990.422 10533.386 11466.395 9736.15 C 12041.356 8773.076 11676.836 7536.995 11214.22 6515.182 C 10751.6 5493.369 10187.693 4408.316 10412.911 3309.483 C 10554.233 2620.126 10991.731 2032.233 11250.321 1377.738 C 11508.873 723.275 11436.034 -177.018 10890.728 -621.782 L -2457.677 -621.782" style="fill-opacity: 1; fill-rule: nonzero; stroke: none; fill: rgb(222, 222, 222);" id="path14" transform="matrix(0.13333330353101047, 0, 0, -0.13333330353101044, 397.577868793825, 697.9470696776193)"/><path d="M 7049.379 12422.193 C 7782.136 12044.637 8642.68 11920.921 9452.068 12076.803 C 9918.441 12166.579 10403.982 12378.898 10621.899 12800.917 C 10845.909 13234.733 10716.101 13789.64 10406.534 14167.158 C 10096.929 14544.715 9639.587 14771.172 9176.401 14925.529 C 8278.161 15224.862 7219.467 15331.676 6292.179 15097.922 C 5313.976 14851.382 5309.157 14074.623 5863.855 13389.623 C 6187.028 12990.597 6592.712 12657.471 7049.379 12422.193" style="fill-opacity: 1; fill-rule: nonzero; stroke: none; fill: rgb(222, 222, 222);" id="path18" transform="matrix(0.13333330353101047, 0, 0, -0.13333330353101044, 397.577868793825, 697.9470696776193)"/><path d="M 4797.118 12924.451 C 4795.169 12927.324 4767.537 13005.052 4731.895 13106.27 C 4621.29 13420.623 4536.933 13743.829 4479.931 14072.141 L 4435.576 14327.506 C 4417.08 14433.969 4273.386 14455.014 4225.132 14358.293 L 3896.29 13698.767 C 3808.289 13522.264 3781.576 13321.458 3820.404 13128.058 L 3911.984 12671.605 L 4797.118 12924.451" style="fill: rgb(109, 87, 62); fill-opacity: 1; fill-rule: nonzero; stroke: none;" id="path22" transform="matrix(0.13333330353101047, 0, 0, -0.13333330353101044, 397.577868793825, 697.9470696776193)"/><path d="M 3967.928 13072.26 C 3944.226 13227.752 3960.77 13391.533 4014.549 13533.494 L 4204.195 14034.128 L 4214.825 13953.708 C 4259.217 13617.176 4325.463 13282.985 4411.697 12960.414 C 4412.722 12956.479 4431.89 12884.17 4432.919 12880.346 L 4019.083 12763.327 L 3967.928 13072.26" style="fill: rgb(239, 201, 163); fill-opacity: 1; fill-rule: nonzero; stroke: none;" id="path24" transform="matrix(0.13333330353101047, 0, 0, -0.13333330353101044, 397.577868793825, 697.9470696776193)"/><path d="M 5555.878 12804.814 C 5951.961 13153.918 6328.741 13524.921 6683.938 13915.551 C 6787.036 14028.922 6975.369 13974.292 7002.187 13823.401 L 7085.478 13354.724 C 7131.536 13095.358 7073.472 12828.23 6923.821 12611.376 L 6414.12 11872.882 L 5555.878 12804.814" style="fill: rgb(109, 87, 62); fill-opacity: 1; fill-rule: nonzero; stroke: none;" id="path26" transform="matrix(0.13333330353101047, 0, 0, -0.13333330353101044, 397.577868793825, 697.9470696776193)"/><path d="M 5859.001 12684.464 C 6211.722 13003.033 6551.474 13341.512 6870.647 13692.566 C 6874.329 13696.606 6876.809 13697.386 6880.104 13697.386 C 6884.037 13697.386 6893.425 13696.182 6895.374 13685.199 L 6978.665 13216.522 C 7017.175 12999.846 6969.525 12780.757 6844.535 12599.615 L 6455.852 12036.417 L 5859.001 12684.464" style="fill: rgb(239, 201, 163); fill-opacity: 1; fill-rule: nonzero; stroke: none;" id="path28" transform="matrix(0.13333330353101047, 0, 0, -0.13333330353101044, 397.577868793825, 697.9470696776193)"/><path d="M 5925.887 9511.218 L 5925.887 10626.242 C 5925.887 10727.636 5805.291 10780.494 5730.714 10711.838 C 5544.363 10540.083 5327.083 10405.243 5090.459 10314.404 L 3752.772 9800.948 L 3753.126 9799.282 L 3440.652 8638.413 C 3355.166 8320.803 3103.802 8074.719 2784.419 7996 L 1575.687 7697.977 L 1482.938 6241.395 L 6699.211 6324.331 L 6106.676 8286.155 C 5986.823 8683.48 5925.887 9096.214 5925.887 9511.218" style="fill: rgb(109, 87, 62); fill-opacity: 1; fill-rule: nonzero; stroke: none;" id="path30" transform="matrix(0.13333330353101047, 0, 0, -0.13333330353101044, 397.577868793825, 697.9470696776193)"/><path d="M 6554.627 8880.881 L 6554.627 11667.752 C 6554.627 11962.974 6418.372 12241.686 6185.291 12422.97 L 5576.108 12896.925 C 5359.643 13065.316 5074.871 13118.175 4812.352 13038.674 L 4055.434 12809.348 C 3872.874 12754.011 3719.964 12628.028 3630.794 12459.355 L 3302.058 11837.773 L 3752.772 9800.948 L 5130.954 10329.958 C 5355.924 10416.33 5551.058 10558.327 5734.223 10714.953 C 5808.975 10778.866 5925.887 10726.044 5925.887 10626.242 L 5925.887 9511.218 C 5925.887 9096.214 5986.823 8683.48 6106.676 8286.155 L 6699.211 6324.331 L 7763.571 6341.266 L 6554.627 8880.881" style="fill: rgb(166, 131, 89); fill-opacity: 1; fill-rule: nonzero; stroke: none;" id="path32" transform="matrix(0.13333330353101047, 0, 0, -0.13333330353101044, 397.577868793825, 697.9470696776193)"/><path d="M 3302.058 11837.773 L 2086.594 11311.845 C 1850.998 11209.919 1751.943 10929.008 1871.549 10701.846 L 2042.169 10377.644 C 2165.209 10143.89 2393.579 9984.038 2655.322 9948.472 L 3749.619 9799.743 C 4013.239 9763.89 4278.453 9853.097 4466.857 10040.935 L 5209.359 10781.132 C 5296.441 10867.967 5262.074 11016.057 5145.656 11055.595 C 5114.48 11066.187 5080.861 11067.249 5049.044 11058.64 C 4825.105 10998.13 4586.887 11080.606 4448.331 11266.636 L 4183.822 11621.803 C 4108.574 11722.807 4081.543 11851.799 4109.993 11974.523 L 4246.778 12565.393 C 4258.507 12615.984 4188.819 12642.236 4164.233 12596.497 L 3892.962 12091.472 C 3826.672 11968.075 3704.271 11884.822 3565.144 11868.558 L 3302.058 11837.773" style="fill: rgb(239, 201, 163); fill-opacity: 1; fill-rule: nonzero; stroke: none;" id="path34" transform="matrix(0.13333330353101047, 0, 0, -0.13333330353101044, 397.577868793825, 697.9470696776193)"/><path d="M 4124.623 10600.591 C 4117.008 10617.74 4096.991 10625.46 4079.699 10617.811 L 3671.819 10436.171 C 3320.196 10279.546 2914.653 10274.16 2558.99 10421.292 L 2405.695 10484.706 L 2349.894 10642.539 L 2352.551 10768.982 C 2352.908 10787.794 2338.026 10803.345 2319.214 10803.735 C 2301.112 10803.735 2284.852 10789.211 2284.461 10770.435 L 2281.557 10631.556 L 2339.411 10467.95 L 2323.252 10451.795 C 2279.641 10408.182 2209.457 10406.271 2163.509 10447.401 L 2065.197 10535.474 C 2051.166 10548.051 2029.662 10546.847 2017.12 10532.853 C 2004.579 10518.823 2005.785 10497.32 2019.777 10484.776 L 2118.089 10396.703 C 2153.164 10365.28 2197.131 10349.692 2241.027 10349.692 C 2288.324 10349.692 2335.511 10367.796 2371.401 10403.684 L 2386.669 10418.916 L 2532.987 10358.37 C 2713.139 10283.831 2905.548 10246.595 3097.92 10246.595 C 3303.545 10246.595 3509.099 10289.144 3699.489 10373.958 L 4107.406 10555.634 C 4124.59 10563.253 4132.311 10583.407 4124.623 10600.591" style="fill: rgb(64, 44, 73); fill-opacity: 1; fill-rule: nonzero; stroke: none;" id="path36" transform="matrix(0.13333330353101047, 0, 0, -0.13333330353101044, 397.577868793825, 697.9470696776193)"/><path d="M 2315.709 10637.048 C 2148.807 10688.098 2009.718 10825.099 1950.586 10989.202 C 1929.261 11048.404 1967.132 11113.34 2029.168 11123.899 C 2281.485 11166.909 2544.289 11147.564 2787.677 11068.383 C 2859.986 11044.86 2881.702 10952.71 2828.101 10898.752 C 2660.918 10730.401 2445.515 10652.848 2315.709 10637.048" style="fill: rgb(64, 44, 73); fill-opacity: 1; fill-rule: nonzero; stroke: none;" id="path38" transform="matrix(0.13333330353101047, 0, 0, -0.13333330353101044, 397.577868793825, 697.9470696776193)"/><path d="M 5112.708 11872.882 C 5112.708 11765.393 5025.556 11678.205 4918.033 11678.205 C 4810.509 11678.205 4723.356 11765.393 4723.356 11872.882 C 4723.356 11980.405 4810.509 12067.593 4918.033 12067.593 C 5025.556 12067.593 5112.708 11980.405 5112.708 11872.882" style="fill: rgb(64, 44, 73); fill-opacity: 1; fill-rule: nonzero; stroke: none;" id="path40" transform="matrix(0.13333330353101047, 0, 0, -0.13333330353101044, 397.577868793825, 697.9470696776193)"/><path d="M 5304.446 12299.007 C 5339.341 12291.144 5378.704 12283.811 5409.56 12300.249 C 5455.827 12324.905 5452.851 12385.737 5432.2 12429.843 C 5393.83 12511.895 5313.409 12577.718 5217.893 12605.283 C 5122.31 12632.81 5013.367 12621.614 4927.563 12575.347 C 4843.847 12530.212 4775.682 12422.299 4901.097 12389.633 C 5033.813 12355.019 5170.315 12329.12 5304.446 12299.007" style="fill: rgb(109, 87, 62); fill-opacity: 1; fill-rule: nonzero; stroke: none;" id="path42" transform="matrix(0.13333330353101047, 0, 0, -0.13333330353101044, 397.577868793825, 697.9470696776193)"/><path d="M 3843.36 12155.914 C 3843.36 12060.578 3794.434 11983.239 3734.1 11983.239 C 3673.768 11983.239 3624.842 12060.578 3624.842 12155.914 C 3624.842 12251.32 3673.768 12328.626 3734.1 12328.626 C 3794.434 12328.626 3843.36 12251.32 3843.36 12155.914" style="fill: rgb(64, 44, 73); fill-opacity: 1; fill-rule: nonzero; stroke: none;" id="path44" transform="matrix(0.13333330353101047, 0, 0, -0.13333330353101044, 397.577868793825, 697.9470696776193)"/><path d="M 4070.597 12573.47 C 4091.25 12575.771 4113.96 12579.562 4123.172 12600.253 C 4136.954 12631.253 4111.835 12679.078 4084.305 12709.192 C 4033.113 12765.241 3967.004 12798.011 3908.053 12796.522 C 3849.17 12795.069 3798.544 12759.36 3773.179 12701.399 C 3748.448 12644.855 3755.925 12542.043 3831.883 12546.756 C 3912.303 12551.715 3991.236 12564.578 4070.597 12573.47" style="fill: rgb(109, 87, 62); fill-opacity: 1; fill-rule: nonzero; stroke: none;" id="path46" transform="matrix(0.13333330353101047, 0, 0, -0.13333330353101044, 397.577868793825, 697.9470696776193)"/><path d="M -1954.671 6186.728 L 10890.728 6390.971 L 10255.255 2691.691 L 10187.163 -621.782 L -1705.011 -621.782 L -1353.248 2203.706 L -1411.952 2307.545 C -1443.979 2364.264 -1442.631 2433.879 -1408.408 2489.325 L -1285.154 2688.854 L -1431.544 2779.799 C -1519.583 2834.533 -1537.119 2955.415 -1468.211 3032.929 L -1327.74 3190.978 L -1954.671 6186.728" style="fill: rgb(236, 172, 100); fill-opacity: 1; fill-rule: nonzero; stroke: none;" id="path48" transform="matrix(0.13333330353101047, 0, 0, -0.13333330353101044, 397.577868793825, 697.9470696776193)"/><path d="M 10255.255 2691.691 L 3302.094 569.661 L 4544.729 622.378 C 5315.073 655.043 6072.347 832.57 6776.939 1145.719 L 10255.255 2691.691" style="fill: rgb(220, 146, 67); fill-opacity: 1; fill-rule: nonzero; stroke: none;" id="path50" transform="matrix(0.13333330353101047, 0, 0, -0.13333330353101044, 397.577868793825, 697.9470696776193)"/><path d="M 93.559 1182.458 L 2629.704 893.083 L 1594.041 686.575 C 1218.823 611.751 829.29 689.409 511.432 902.402 L 93.559 1182.458" style="fill: rgb(220, 146, 67); fill-opacity: 1; fill-rule: nonzero; stroke: none;" id="path52" transform="matrix(0.13333330353101047, 0, 0, -0.13333330353101044, 397.577868793825, 697.9470696776193)"/><path d="M -1177.384 2243.421 L 445.322 2379.606 L -227.134 2177.452 C -392.796 2127.678 -568.237 2119.635 -737.724 2154.106 L -1177.384 2243.421" style="fill: rgb(220, 146, 67); fill-opacity: 1; fill-rule: nonzero; stroke: none;" id="path54" transform="matrix(0.13333330353101047, 0, 0, -0.13333330353101044, 397.577868793825, 697.9470696776193)"/><path d="M -1029.861 3225.021 L 35.563 3530.092 C 183.051 3572.32 336.133 3591.667 489.467 3587.522 L 1716.229 3554.113 L 458.857 3263.534 C 348.072 3237.954 234.706 3225.021 121.016 3225.021 L -1029.861 3225.021" style="fill: rgb(220, 146, 67); fill-opacity: 1; fill-rule: nonzero; stroke: none;" id="path56" transform="matrix(0.13333330353101047, 0, 0, -0.13333330353101044, 397.577868793825, 697.9470696776193)"/><path d="M -1385.097 3465.155 L -1477.74 3907.79 L -1604.147 4511.729 L -229.861 4982.462 L -314.961 4856.232 L -201.944 4821.086 L -246.868 4683.168 L -173.497 4656.595 L -235.529 4495.965 L -142.107 4475.062 L -204.32 4314.398 L -110.895 4294.487 L -184.479 4147 L -82.518 4130.42 L -147.598 3988.139 L -56.196 3978.362 L -113.552 3863.29 L -34.122 3850.537 L -1385.097 3465.155" style="fill: rgb(246, 214, 178); fill-opacity: 1; fill-rule: nonzero; stroke: none;" id="path58" transform="matrix(0.13333330353101047, 0, 0, -0.13333330353101044, 397.577868793825, 697.9470696776193)"/><path d="M 8723.777 3132.628 L 958.745 1522.46 L 562.837 4284.886 L 8397.695 5407.811 L 8723.777 3132.628" style="fill: rgb(255, 255, 255); fill-opacity: 1; fill-rule: nonzero; stroke: none;" id="path60" transform="matrix(0.13333330353101047, 0, 0, -0.13333330353101044, 397.577868793825, 697.9470696776193)"/><g id="g62" transform="matrix(4.723727378409192, 0, 0, -4.723727378409192, -522.7418610874715, 2069.606809568697)" style=""><text transform="matrix(0.989884, 0.141881, 0.141881, -0.989884, 243.840336, 366.571142)" style="font-variant: normal; font-weight: normal; font-size: 29.7484px; font-family: FredokaOne; writing-mode: lr-tb; fill: rgb(64, 44, 73); fill-opacity: 1; fill-rule: nonzero; stroke: none; white-space: pre;" id="text70">ADOTE-NOS</text></g><path d="M -1954.671 6186.728 L -3325.876 3225.021 L -1474.126 3890.608 L -1954.671 6186.728 Z" style="fill: rgb(220, 146, 67); fill-opacity: 1; fill-rule: nonzero; stroke: none;" id="path72" transform="matrix(0.13333330353101047, 0, 0, -0.13333330353101044, 397.577868793825, 697.9470696776193)"/><path d="M 10890.728 6390.971 L 11957.39 3406.556 L 10469.38 3938.186 L 10890.728 6390.971 Z" style="fill: rgb(220, 146, 67); fill-opacity: 1; fill-rule: nonzero; stroke: none;" id="path74" transform="matrix(0.13333330353101047, 0, 0, -0.13333330353101044, 397.577868793825, 697.9470696776193)"/><path d="M -550.415 9817.917 L -675.264 9267.401 L -612.839 9256.208 L -383.053 9863.337 L -550.415 9817.917" style="fill: rgb(152, 64, 88); fill-opacity: 1; fill-rule: nonzero; stroke: none;" id="path76" transform="matrix(0.13333330353101047, 0, 0, -0.13333330353101044, 397.577868793825, 697.9470696776193)"/><path d="M -955.109 9781.036 L -930.557 9193.573 L -871.003 9193.573 L -811.414 9764.031 L -955.109 9781.036" style="fill: rgb(152, 64, 88); fill-opacity: 1; fill-rule: nonzero; stroke: none;" id="path78" transform="matrix(0.13333330353101047, 0, 0, -0.13333330353101044, 397.577868793825, 697.9470696776193)"/><path d="M 101.495 11061.014 C 117.687 11103.634 135.26 11147.068 166.259 11180.549 C 197.259 11213.991 244.907 11235.779 288.946 11223.948 C 338.543 11210.662 369.685 11158.264 373.971 11107.106 C 378.295 11055.947 361.323 11005.604 343.468 10957.493 C 257.909 10726.679 146.561 10505.432 12.289 10299.134 C -5.286 10272.141 -56.196 10166.246 -90.028 10163.198 C -146.642 10158.131 -111.427 10259.738 -106.432 10289.819 C -86.025 10413.035 -59.845 10535.263 -28.098 10656.037 C 7.93 10793.177 51.189 10928.442 101.495 11061.014" style="fill: rgb(255, 219, 138); fill-opacity: 1; fill-rule: nonzero; stroke: none;" id="path80" transform="matrix(0.13333330353101047, 0, 0, -0.13333330353101044, 397.577868793825, 697.9470696776193)"/><path d="M 387.61 11025.62 C 417.158 11064.168 448.37 11103.031 489.927 11127.017 C 531.486 11151.036 586.15 11157.341 626.679 11130.205 C 672.346 11099.629 687.225 11034.974 675.604 10980.699 C 663.95 10926.423 631.18 10880.226 598.265 10836.578 C 440.294 10627.374 259.434 10436.809 60.185 10269.445 C 34.11 10247.518 -50.101 10155.511 -84.996 10163.87 C -143.417 10177.828 -76.319 10270.759 -61.936 10300.128 C -2.981 10420.369 61.426 10537.707 131.008 10651.572 C 210.047 10780.918 295.713 10905.839 387.61 11025.62" style="fill: rgb(244, 208, 113); fill-opacity: 1; fill-rule: nonzero; stroke: none;" id="path82" transform="matrix(0.13333330353101047, 0, 0, -0.13333330353101044, 397.577868793825, 697.9470696776193)"/><path d="M 559.509 10836.364 C 595.328 10864.601 632.736 10892.804 676.561 10905.52 C 720.351 10918.239 772.43 10912.392 804.102 10879.588 C 839.743 10842.672 839.496 10781.698 816.855 10735.645 C 794.218 10689.551 753.76 10655.15 713.656 10623.056 C 521.527 10469.226 312.187 10336.867 90.869 10229.092 C 61.922 10214.995 -36.248 10150.41 -66.822 10165.217 C -117.948 10190.017 -35.47 10258.995 -15.701 10282.2 C 65.217 10377.325 150.528 10468.66 239.912 10555.881 C 341.449 10654.903 448.157 10748.575 559.509 10836.364" style="fill: rgb(236, 168, 94); fill-opacity: 1; fill-rule: nonzero; stroke: none;" id="path84" transform="matrix(0.13333330353101047, 0, 0, -0.13333330353101044, 397.577868793825, 697.9470696776193)"/><path d="M -738.572 9710.394 C -1065.89 9686.764 -1400.082 9854.55 -1576.657 10131.137 C -1753.227 10407.758 -1764.709 10781.523 -1605.46 11068.453 C -1516.111 11229.474 -1371.103 11365.658 -1193.538 11414.406 C -1015.939 11463.121 -806.876 11411.149 -694.572 11265.184 C -504.781 11018.57 -639.694 10622.451 -443.564 10380.868 C -385.391 10309.232 -300.117 10261.971 -209.917 10244.789 C -147.208 10232.85 16.788 10276.603 -7.905 10172.551 C -26.187 10095.494 -129.034 10004.093 -185.189 9952.896 C -256.397 9887.959 -337.494 9833.861 -424.857 9793.119 C -523.383 9747.169 -630.021 9718.223 -738.572 9710.394" style="fill: rgb(244, 208, 113); fill-opacity: 1; fill-rule: nonzero; stroke: none;" id="path86" transform="matrix(0.13333330353101047, 0, 0, -0.13333330353101044, 397.577868793825, 697.9470696776193)"/><path d="M -209.917 10244.789 C -288.993 10259.844 -364.241 10298.039 -420.785 10355.502 C -565.117 10287.656 -724.613 10251.839 -884.11 10254 C -1105.218 10257.011 -1324.798 10331.872 -1501.653 10464.621 C -1586.258 10528.072 -1661.54 10605.553 -1714.327 10697.064 C -1729.104 10499.977 -1683.118 10297.895 -1576.657 10131.137 C -1400.082 9854.55 -1065.89 9686.764 -738.572 9710.394 C -630.021 9718.223 -523.383 9747.169 -424.857 9793.119 C -337.494 9833.861 -256.397 9887.959 -185.189 9952.896 C -129.034 10004.093 -26.187 10095.494 -7.905 10172.551 C 16.788 10276.603 -147.208 10232.85 -209.917 10244.789" style="fill: rgb(236, 168, 94); fill-opacity: 1; fill-rule: nonzero; stroke: none;" id="path88" transform="matrix(0.13333330353101047, 0, 0, -0.13333330353101044, 397.577868793825, 697.9470696776193)"/><path d="M -749.555 11001.885 L -463.899 10861.2 L -793.874 10843.878 C -846.771 10841.077 -883.827 10895.247 -862.144 10943.535 L -852.581 10964.793 C -834.937 11004.117 -788.207 11020.91 -749.555 11001.885" style="fill: rgb(152, 64, 88); fill-opacity: 1; fill-rule: nonzero; stroke: none;" id="path90" transform="matrix(0.13333330353101047, 0, 0, -0.13333330353101044, 397.577868793825, 697.9470696776193)"/><path d="M -900.764 11153.411 C -900.764 11107.567 -937.925 11070.402 -983.77 11070.402 C -1029.579 11070.402 -1066.742 11107.567 -1066.742 11153.411 C -1066.742 11199.219 -1029.579 11236.383 -983.77 11236.383 C -937.925 11236.383 -900.764 11199.219 -900.764 11153.411" style="fill: rgb(64, 44, 73); fill-opacity: 1; fill-rule: nonzero; stroke: none;" id="path92" transform="matrix(0.13333330353101047, 0, 0, -0.13333330353101044, 397.577868793825, 697.9470696776193)"/><path d="M -2457.677 9267.401 C -2170.288 9131.393 -1807.153 8739.917 -1807.153 8739.917 L -2482.336 7514.391 C -2493.673 8007.973 -2817.096 8390.916 -2817.096 8390.916 L -2457.677 9267.401" style="fill: rgb(86, 75, 74); fill-opacity: 1; fill-rule: nonzero; stroke: none;" id="path94" transform="matrix(0.13333330353101047, 0, 0, -0.13333330353101044, 397.577868793825, 697.9470696776193)"/><path d="M -2457.677 9267.401 L -2817.096 8390.916 C -2817.096 8390.916 -2728.1 8285.412 -2641.871 8114.009 C -2473.799 8354.883 -2317.878 8716.57 -2457.677 9267.401" style="fill: rgb(64, 44, 73); fill-opacity: 1; fill-rule: nonzero; stroke: none;" id="path96" transform="matrix(0.13333330353101047, 0, 0, -0.13333330353101044, 397.577868793825, 697.9470696776193)"/><path d="M -2457.677 9267.401 C -2467.35 8821.364 -2628.689 8380.005 -2908.89 8032.881 C -2961.501 7967.659 -3031.223 7900.201 -3114.691 7907.498 C -3214.138 7916.214 -3271.354 8024.484 -3295.548 8121.345 C -3345.787 8322.326 -3333.314 8538.506 -3260.404 8732.406 L -2457.677 9267.401" style="fill: rgb(86, 75, 74); fill-opacity: 1; fill-rule: nonzero; stroke: none;" id="path98" transform="matrix(0.13333330353101047, 0, 0, -0.13333330353101044, 397.577868793825, 697.9470696776193)"/><path d="M 976.035 10069.138 C 764.814 9831.486 583.917 9329.085 583.917 9329.085 L 1684.982 8465.668 C 1502.174 8924.354 1649.873 9403.271 1649.873 9403.271 L 976.035 10069.138" style="fill: rgb(86, 75, 74); fill-opacity: 1; fill-rule: nonzero; stroke: none;" id="path100" transform="matrix(0.13333330353101047, 0, 0, -0.13333330353101044, 397.577868793825, 697.9470696776193)"/><path d="M 976.035 10069.138 L 1649.873 9403.271 C 1649.873 9403.271 1609.311 9271.406 1597.014 9079.882 C 1348.064 9235.764 1063.048 9507.568 976.035 10069.138" style="fill: rgb(64, 44, 73); fill-opacity: 1; fill-rule: nonzero; stroke: none;" id="path102" transform="matrix(0.13333330353101047, 0, 0, -0.13333330353101044, 397.577868793825, 697.9470696776193)"/><path d="M 976.035 10069.138 C 1159.551 9662.494 1480.777 9319.483 1874.525 9109.749 C 1948.462 9070.353 2039.016 9035.524 2112.953 9074.924 C 2201.061 9121.864 2211.3 9243.913 2195.678 9342.511 C 2163.227 9547.106 2067.144 9741.179 1924.122 9891.079 L 976.035 10069.138" style="fill: rgb(86, 75, 74); fill-opacity: 1; fill-rule: nonzero; stroke: none;" id="path104" transform="matrix(0.13333330353101047, 0, 0, -0.13333330353101044, 397.577868793825, 697.9470696776193)"/><path d="M -2584.264 7518.961 L -2297.438 8311.982 C -2146.409 8729.534 -1792.128 9040.7 -1358.525 9136.604 L -54.034 9425.126 C 345.734 9513.556 763.502 9401.604 1065.491 9125.125 L 1889.188 8371.005 C 2065.444 8209.664 2121.703 7955.186 2029.944 7734.539 L 1632.904 6779.901 C 1502.707 6466.929 1216.876 6246.035 881.195 6199.023 L -990.179 5936.819 C -1300.214 5893.385 -1611.905 6004.171 -1825.008 6233.494 L -2462.178 6919.203 C -2612.038 7080.471 -2659.158 7311.957 -2584.264 7518.961" style="fill: rgb(194, 183, 175); fill-opacity: 1; fill-rule: nonzero; stroke: none;" id="path106" transform="matrix(0.13333330353101047, 0, 0, -0.13333330353101044, 397.577868793825, 697.9470696776193)"/><path d="M -980.012 8484.799 C -907.955 8489.014 -830.899 8487.491 -770.458 8448.023 C -685.394 8392.474 -659.424 8279.388 -659.924 8177.817 C -661.196 7936.479 -776.801 7698.229 -965.596 7547.944 C -1039.815 7488.847 -1126.226 7442.365 -1219.86 7427.206 C -1313.496 7412.041 -1414.856 7430.853 -1489.009 7489.98 C -1557.418 7544.472 -1596.85 7626.52 -1634.05 7705.631 C -1714.011 7875.723 -1740.793 8066.432 -1627.497 8230.534 C -1559.864 8328.422 -1453.404 8393.925 -1337.48 8417.343 C -1216.246 8441.827 -1106.243 8477.465 -980.012 8484.799" style="fill: rgb(132, 117, 116); fill-opacity: 1; fill-rule: nonzero; stroke: none;" id="path108" transform="matrix(0.13333330353101047, 0, 0, -0.13333330353101044, 397.577868793825, 697.9470696776193)"/><path d="M -964.672 7954.299 C -964.672 7834.446 -1061.817 7737.268 -1181.703 7737.268 C -1301.556 7737.268 -1398.701 7834.446 -1398.701 7954.299 C -1398.701 8074.152 -1301.556 8171.331 -1181.703 8171.331 C -1061.817 8171.331 -964.672 8074.152 -964.672 7954.299" style="fill: rgb(64, 44, 73); fill-opacity: 1; fill-rule: nonzero; stroke: none;" id="path110" transform="matrix(0.13333330353101047, 0, 0, -0.13333330353101044, 397.577868793825, 697.9470696776193)"/><path d="M -1122.787 8577.23 C -1063.27 8589.631 -996.381 8607.272 -967.543 8660.806 C -940.512 8710.937 -960.068 8776.868 -1001.376 8816.086 C -1042.686 8855.269 -1100.683 8871.956 -1157.33 8878.014 C -1282.958 8891.44 -1413.084 8857.465 -1516.111 8784.341 C -1596.14 8727.553 -1689.848 8548.179 -1543.248 8505.206 C -1492.372 8490.29 -1426.371 8514.132 -1376.913 8524.408 C -1292.204 8542.015 -1207.531 8559.622 -1122.787 8577.23" style="fill: rgb(132, 117, 116); fill-opacity: 1; fill-rule: nonzero; stroke: none;" id="path112" transform="matrix(0.13333330353101047, 0, 0, -0.13333330353101044, 397.577868793825, 697.9470696776193)"/><path d="M 164.488 8692.83 C 96.856 8667.608 26.955 8635.118 -12.439 8574.643 C -67.851 8489.51 -46.028 8375.504 -4.576 8282.788 C 93.913 8062.499 295.818 7891.096 529.218 7829.737 C 620.94 7805.609 718.756 7797.923 810.55 7821.802 C 902.346 7845.714 987.477 7903.817 1031.514 7987.852 C 1072.115 8065.294 1075.126 8156.24 1077.254 8243.678 C 1081.821 8431.549 1029.39 8616.838 859.512 8721.315 C 758.152 8783.635 634.298 8800.605 518.804 8775.273 C 397.993 8748.775 282.955 8737.011 164.488 8692.83" style="fill: rgb(132, 117, 116); fill-opacity: 1; fill-rule: nonzero; stroke: none;" id="path114" transform="matrix(0.13333330353101047, 0, 0, -0.13333330353101044, 397.577868793825, 697.9470696776193)"/><path d="M 364.441 8201.197 C 412.765 8091.512 540.872 8041.806 650.558 8090.169 C 760.208 8138.49 809.949 8266.6 761.591 8376.284 C 713.228 8485.966 585.158 8535.638 475.474 8487.314 C 365.789 8438.954 316.083 8310.883 364.441 8201.197" style="fill: rgb(64, 44, 73); fill-opacity: 1; fill-rule: nonzero; stroke: none;" id="path116" transform="matrix(0.13333330353101047, 0, 0, -0.13333330353101044, 397.577868793825, 697.9470696776193)"/><path d="M 257.839 8835.004 C 198.391 8822.321 130.051 8811.482 82.082 8848.82 C 37.125 8883.787 28.442 8951.986 50.407 9004.562 C 72.372 9057.104 118.749 9095.755 168.099 9124.132 C 277.644 9187.086 410.427 9208.522 534.21 9183.156 C 630.328 9163.456 788.443 9037.158 671.603 8938.665 C 631.108 8904.513 561.065 8899.66 511.679 8889.138 C 427.078 8871.071 342.439 8853.036 257.839 8835.004" style="fill: rgb(132, 117, 116); fill-opacity: 1; fill-rule: nonzero; stroke: none;" id="path118" transform="matrix(0.13333330353101047, 0, 0, -0.13333330353101044, 397.577868793825, 697.9470696776193)"/><path d="M -698.433 7752.608 L -837.627 7701.591 C -944.798 7662.302 -1039.214 7594.423 -1110.565 7505.286 C -1201.439 7391.811 -1329.016 7313.515 -1471.364 7283.897 L -1771.828 7221.402 C -1909.503 7192.777 -2015.608 7082.772 -2039.205 6944.144 C -2057.412 6837.222 -2023.828 6728.033 -1948.614 6649.809 L -1756.699 6450.242 C -1522.664 6206.816 -1184.646 6092.738 -850.915 6144.57 L 741.712 6391.892 C 1090.821 6446.098 1388.273 6674.501 1530.768 6997.818 L 1650.549 7269.515 C 1714.39 7414.379 1684.878 7583.368 1575.687 7697.977 C 1476.95 7801.676 1329.499 7843.271 1191.116 7806.495 L 1073.639 7775.248 C 924.025 7735.496 764.672 7758.455 632.417 7838.842 C 543.426 7892.905 441.323 7921.495 337.233 7921.495 L 93.559 7921.495 L -698.433 7752.608" style="fill: rgb(221, 212, 188); fill-opacity: 1; fill-rule: nonzero; stroke: none;" id="path120" transform="matrix(0.13333330353101047, 0, 0, -0.13333330353101044, 397.577868793825, 697.9470696776193)"/><path d="M -1062.704 6700.967 C -963.61 6685.447 -861.864 6694.908 -766.738 6728.813 C -842.198 6851.286 -904.34 6982.192 -949.193 7118.733 C -1014.486 6988.923 -1052.817 6845.9 -1062.704 6700.967" style="fill: rgb(255, 255, 255); fill-opacity: 1; fill-rule: nonzero; stroke: none;" id="path122" transform="matrix(0.13333330353101047, 0, 0, -0.13333330353101044, 397.577868793825, 697.9470696776193)"/><path d="M 1025.881 7136.055 C 940.995 7250.526 834.005 7348.657 711.919 7422.209 C 747.098 7281.454 764.353 7136.197 765.591 6991.014 C 851.716 7014.149 932.917 7056.131 1002.535 7115.967 L 1025.881 7136.055" style="fill: rgb(255, 255, 255); fill-opacity: 1; fill-rule: nonzero; stroke: none;" id="path124" transform="matrix(0.13333330353101047, 0, 0, -0.13333330353101044, 397.577868793825, 697.9470696776193)"/><path d="M 1384.592 7444.387 C 1372.367 7458.628 1350.863 7460.223 1336.62 7447.998 L 980.323 7141.76 C 838.858 7020.135 646.553 6975.533 465.978 7022.44 L 149.748 7104.527 C 75.634 7123.763 -0.394 7128.511 -74.971 7120.892 L -119.576 7427.095 C -122.305 7445.697 -139.802 7458.485 -158.157 7455.866 C -176.755 7453.171 -189.652 7435.883 -186.959 7417.285 L -142.249 7110.371 C -221.537 7093.616 -297.956 7062.507 -366.649 7016.274 L -651.242 6824.611 C -830.403 6703.977 -1067.061 6695.756 -1254.05 6803.742 L -1489.433 6939.606 C -1505.763 6949.032 -1526.527 6943.469 -1535.948 6927.139 C -1545.339 6910.84 -1539.74 6890.044 -1523.479 6880.622 L -1288.097 6744.791 C -1190.032 6688.176 -1079.814 6660.118 -969.706 6660.118 C -844.714 6660.118 -719.832 6696.324 -613.194 6768.1 L -328.601 6959.766 C -193.371 7050.887 -25.16 7079.586 132.603 7038.628 L 448.866 6956.543 C 651.091 6903.968 866.352 6953.956 1024.714 7090.141 L 1380.976 7396.382 C 1395.254 7408.641 1396.847 7430.11 1384.592 7444.387" style="fill: rgb(64, 44, 73); fill-opacity: 1; fill-rule: nonzero; stroke: none;" id="path126" transform="matrix(0.13333330353101047, 0, 0, -0.13333330353101044, 397.577868793825, 697.9470696776193)"/><path d="M -734.392 7729.048 L -698.433 7752.608 C -447.036 7917.596 -145.613 7988.951 153.078 7954.194 L 212.988 7947.213 C 312.788 7935.593 363.98 7821.588 306.305 7739.287 L 155.949 7524.666 C 33.225 7349.476 -194.542 7282.763 -392.372 7364.069 L -712.002 7495.366 C -810.705 7535.932 -823.602 7670.521 -734.392 7729.048" style="fill: rgb(64, 44, 73); fill-opacity: 1; fill-rule: nonzero; stroke: none;" id="path128" transform="matrix(0.13333330353101047, 0, 0, -0.13333330353101044, 397.577868793825, 697.9470696776193)"/><path d="M 2059.67 6122.887 C 2035.33 6294.074 1970.25 6471.038 1869.172 6611.298 C 1804.197 6534.455 1732.564 6480.464 1667.589 6403.621 C 1640.771 6503.17 1622.027 6615.727 1629.751 6718.573 C 1512.98 6687.114 1405.457 6625.114 1329.465 6531.051 C 1317.454 6611.899 1322.484 6695.157 1343.563 6774.124 C 1188.567 6630.287 1076.188 6440.002 1030.167 6233.422 C 996.583 6082.642 997.753 5920.808 1056.491 5777.961 C 1133.299 5591.22 1310.617 5449.507 1509.684 5415.779 C 1708.719 5382.018 1922.882 5457.408 2056.905 5608.402 C 2188.592 5756.774 2242.122 6048.243 2189.796 6242.067 C 2154.226 6195.905 2109.872 6156.224 2059.67 6122.887" style="fill: rgb(251, 238, 209); fill-opacity: 1; fill-rule: nonzero; stroke: none;" id="path130" transform="matrix(0.13333330353101047, 0, 0, -0.13333330353101044, 397.577868793825, 697.9470696776193)"/><path d="M 3058.382 6266.442 C 2979.804 6565.56 2761.921 6829.887 2480.234 6957.536 C 2198.546 7085.147 1859.537 7078.734 1582.845 6940.565 C 1495.549 6896.987 1415.023 6840.481 1343.563 6774.124 C 1322.484 6695.157 1317.454 6611.899 1329.465 6531.051 C 1405.457 6625.114 1512.98 6687.114 1629.751 6718.573 C 1622.027 6615.727 1640.771 6503.17 1667.589 6403.621 C 1732.564 6480.464 1804.197 6534.455 1869.172 6611.298 C 1970.25 6471.038 2035.33 6294.074 2059.67 6122.887 C 2109.872 6156.224 2154.226 6195.905 2189.796 6242.067 C 2188.874 6245.539 2188.131 6249.188 2187.139 6252.588 L 2197.946 6252.73 L 3058.382 6266.442" style="fill: rgb(153, 163, 176); fill-opacity: 1; fill-rule: nonzero; stroke: none;" id="path132" transform="matrix(0.13333330353101047, 0, 0, -0.13333330353101044, 397.577868793825, 697.9470696776193)"/><path d="M 2241.628 6253.44 L 2539.826 6258.188 L 2719.374 6261.022 L 2241.628 6253.44" style="fill: rgb(184, 133, 92); fill-opacity: 1; fill-rule: nonzero; stroke: none;" id="path134" transform="matrix(0.13333330353101047, 0, 0, -0.13333330353101044, 397.577868793825, 697.9470696776193)"/><path d="M 2187.139 6252.588 C 2121.917 6490.274 2255.268 6646.3 2337.53 6697.353 C 2321.871 6659.762 2310.003 6611.58 2294.31 6573.989 C 2306.321 6575.551 2318.399 6576.294 2330.516 6576.294 C 2424.968 6576.294 2522.039 6531.231 2593.78 6470.435 C 2609.583 6457.009 2624.213 6442.268 2637.534 6426.399 C 2607.706 6379.384 2579.503 6331.312 2552.9 6282.278 L 2539.826 6258.188 L 2241.628 6253.44 L 2187.139 6252.588" style="fill: rgb(126, 127, 145); fill-opacity: 1; fill-rule: nonzero; stroke: none;" id="path136" transform="matrix(0.13333330353101047, 0, 0, -0.13333330353101044, 397.577868793825, 697.9470696776193)"/><path d="M 4343.179 6866.025 L 4297.831 6910.132 L 3038.226 6910.132 L 3000.989 6873.926 C 2822.609 6700.471 2671.51 6500.976 2552.9 6282.278 L 2539.826 6258.188 L 3668.029 6276.113 L 4780.605 6293.827 C 4663.625 6504.977 4516.244 6697.742 4343.179 6866.025" style="fill: rgb(153, 163, 176); fill-opacity: 1; fill-rule: nonzero; stroke: none;" id="path138" transform="matrix(0.13333330353101047, 0, 0, -0.13333330353101044, 397.577868793825, 697.9470696776193)"/><path d="M 3668.029 6671.844 C 3396.898 6671.844 3163.923 6505.405 3058.382 6266.442 L 4268.674 6285.678 C 4159.308 6514.225 3931.79 6671.844 3668.029 6671.844" style="fill: rgb(212, 207, 190); fill-opacity: 1; fill-rule: nonzero; stroke: none;" id="path140" transform="matrix(0.13333330353101047, 0, 0, -0.13333330353101044, 397.577868793825, 697.9470696776193)"/><path d="M 4020.112 6568.431 C 3917.903 6633.973 3797.307 6671.844 3668.029 6671.844 C 3538.717 6671.844 3418.084 6633.973 3315.838 6568.465 C 3165.448 6608.285 3024.62 6677.121 2901.191 6770.438 C 2933.537 6805.761 2966.589 6840.481 3000.989 6873.926 L 3038.226 6910.132 L 3668.029 6910.132 L 4297.831 6910.132 L 4343.179 6866.025 C 4374.888 6835.203 4405.426 6803.281 4435.362 6770.829 C 4311.79 6677.298 4170.75 6608.322 4020.112 6568.431" style="fill: rgb(126, 127, 145); fill-opacity: 1; fill-rule: nonzero; stroke: none;" id="path142" transform="matrix(0.13333330353101047, 0, 0, -0.13333330353101044, 397.577868793825, 697.9470696776193)"/><path d="M 3715.111 6528.75 L 3620.943 6528.75 C 3516.61 6528.75 3414.187 6542.424 3315.838 6568.465 C 3418.084 6633.973 3538.717 6671.844 3668.029 6671.844 C 3797.307 6671.844 3917.903 6633.973 4020.112 6568.431 C 3921.798 6542.391 3819.447 6528.75 3715.111 6528.75" style="fill: rgb(167, 158, 155); fill-opacity: 1; fill-rule: nonzero; stroke: none;" id="path144" transform="matrix(0.13333330353101047, 0, 0, -0.13333330353101044, 397.577868793825, 697.9470696776193)"/><path d="M 2122.837 9751.667 C 2067.782 9262.443 2098.038 8767.371 2212.224 8288.457 L 2243.894 8155.496 L 3058.382 8972.535 L 2918.445 9203.807 C 2762.382 9461.796 2545.636 9677.728 2287.081 9832.867 C 2219.097 9873.681 2131.695 9830.457 2122.837 9751.667" style="fill: rgb(121, 124, 153); fill-opacity: 1; fill-rule: nonzero; stroke: none;" id="path146" transform="matrix(0.13333330353101047, 0, 0, -0.13333330353101044, 397.577868793825, 697.9470696776193)"/><path d="M 2402.328 9276.154 C 2536.387 9162.888 2655.036 9021.071 2751.01 8858.317 L 2823.105 8736.516 L 2889.712 8803.334 L 2699.96 9115.701 C 2575.678 9321.075 2407.253 9498.71 2209.21 9633.975 C 2178.53 9286.25 2192.417 8938.099 2250.519 8594.908 C 2256.188 8561.428 2325.203 8276.945 2331.72 8243.606 L 2426.951 8339.156 C 2364.208 8633.808 2327.79 8934.236 2318.541 9236.969 C 2317.195 9280.794 2368.814 9304.459 2402.328 9276.154" style="fill: rgb(235, 167, 172); fill-opacity: 1; fill-rule: nonzero; stroke: none;" id="path148" transform="matrix(0.13333330353101047, 0, 0, -0.13333330353101044, 397.577868793825, 697.9470696776193)"/><path d="M 2751.01 8858.317 C 2655.036 9021.071 2536.387 9162.888 2402.328 9276.154 C 2368.814 9304.459 2317.195 9280.794 2318.541 9236.969 C 2327.79 8934.236 2364.208 8633.808 2426.951 8339.156 L 2823.105 8736.516 L 2751.01 8858.317" style="fill: rgb(230, 135, 153); fill-opacity: 1; fill-rule: nonzero; stroke: none;" id="path150" transform="matrix(0.13333330353101047, 0, 0, -0.13333330353101044, 397.577868793825, 697.9470696776193)"/><path d="M 5204.22 9751.667 C 5259.275 9262.443 5229.019 8767.371 5114.833 8288.457 L 5083.163 8155.496 L 4268.708 8972.535 L 4408.616 9203.807 C 4564.673 9461.796 4781.424 9677.728 5039.975 9832.867 C 5107.96 9873.681 5195.362 9830.457 5204.22 9751.667" style="fill: rgb(121, 124, 153); fill-opacity: 1; fill-rule: nonzero; stroke: none;" id="path152" transform="matrix(0.13333330353101047, 0, 0, -0.13333330353101044, 397.577868793825, 697.9470696776193)"/><path d="M 4924.765 9276.154 C 4790.706 9162.888 4672.021 9021.071 4576.047 8858.317 L 4503.952 8736.516 L 4437.348 8803.334 L 4627.133 9115.701 C 4751.415 9321.075 4919.842 9498.71 5117.847 9633.975 C 5148.527 9286.25 5134.64 8938.099 5076.537 8594.908 C 5070.869 8561.428 5001.857 8276.945 4995.337 8243.606 L 4900.106 8339.156 C 4962.813 8633.808 4999.304 8934.236 5008.553 9236.969 C 5009.897 9280.794 4958.242 9304.459 4924.765 9276.154" style="fill: rgb(235, 167, 172); fill-opacity: 1; fill-rule: nonzero; stroke: none;" id="path154" transform="matrix(0.13333330353101047, 0, 0, -0.13333330353101044, 397.577868793825, 697.9470696776193)"/><path d="M 4576.047 8858.317 C 4672.021 9021.071 4790.706 9162.888 4924.765 9276.154 C 4958.242 9304.459 5009.897 9280.794 5008.553 9236.969 C 4999.304 8934.236 4962.813 8633.808 4900.106 8339.156 L 4503.952 8736.516 L 4576.047 8858.317" style="fill: rgb(230, 135, 153); fill-opacity: 1; fill-rule: nonzero; stroke: none;" id="path156" transform="matrix(0.13333330353101047, 0, 0, -0.13333330353101044, 397.577868793825, 697.9470696776193)"/><path d="M 3962.256 9125.053 L 3373.798 9125.053 C 3024.586 9125.053 2697.089 8955.53 2495.468 8670.407 L 2182.887 8228.335 C 2052.833 8044.463 2052.833 7798.561 2182.887 7614.653 L 2495.468 7172.584 C 2697.089 6887.457 3024.586 6717.935 3373.798 6717.935 L 3962.256 6717.935 C 4311.471 6717.935 4638.968 6887.457 4840.55 7172.584 L 5153.203 7614.653 C 5283.187 7798.561 5283.187 8044.463 5153.203 8228.335 L 4840.55 8670.407 C 4638.968 8955.53 4311.471 9125.053 3962.256 9125.053" style="fill: rgb(153, 163, 176); fill-opacity: 1; fill-rule: nonzero; stroke: none;" id="path158" transform="matrix(0.13333330353101047, 0, 0, -0.13333330353101044, 397.577868793825, 697.9470696776193)"/><path d="M 3302.094 8123.611 C 3302.094 8046.449 3239.528 7983.884 3162.366 7983.884 C 3085.204 7983.884 3022.639 8046.449 3022.639 8123.611 C 3022.639 8200.773 3085.204 8263.305 3162.366 8263.305 C 3239.528 8263.305 3302.094 8200.773 3302.094 8123.611" style="fill: rgb(64, 44, 73); fill-opacity: 1; fill-rule: nonzero; stroke: none;" id="path160" transform="matrix(0.13333330353101047, 0, 0, -0.13333330353101044, 397.577868793825, 697.9470696776193)"/><path d="M 4246.212 7508.686 C 4232.928 7521.974 4211.387 7521.974 4198.099 7508.686 L 4075.769 7386.357 C 4033.927 7344.514 3978.272 7321.45 3919.141 7321.45 C 3796.949 7321.45 3697.575 7420.861 3697.575 7543.019 L 3697.575 7556.941 C 3697.575 7575.753 3682.34 7590.987 3663.528 7590.987 C 3644.716 7590.987 3629.482 7575.753 3629.482 7556.941 L 3629.482 7543.019 C 3629.482 7420.861 3530.107 7321.45 3407.953 7321.45 C 3348.788 7321.45 3293.13 7344.514 3251.291 7386.357 L 3128.991 7508.686 C 3115.67 7521.974 3094.129 7521.974 3080.845 7508.686 C 3067.524 7495.366 3067.524 7473.826 3080.845 7460.542 L 3203.142 7338.243 C 3257.844 7283.507 3330.577 7253.393 3407.953 7253.393 C 3518.52 7253.393 3614.745 7315.711 3663.528 7407.079 C 3712.315 7315.711 3808.537 7253.393 3919.141 7253.393 C 3996.48 7253.393 4069.179 7283.507 4123.915 7338.243 L 4246.212 7460.542 C 4259.532 7473.826 4259.532 7495.366 4246.212 7508.686" style="fill: rgb(121, 124, 153); fill-opacity: 1; fill-rule: nonzero; stroke: none;" id="path162" transform="matrix(0.13333330353101047, 0, 0, -0.13333330353101044, 397.577868793825, 697.9470696776193)"/><path d="M 3256.144 8444.978 C 3286.081 8437.359 3317.823 8424.82 3346.732 8435.803 C 3379.68 8448.272 3395.339 8489.191 3387.793 8523.627 C 3380.283 8558.027 3354.703 8585.945 3326.006 8606.385 C 3230.456 8674.445 3089.348 8669.45 2998.83 8594.803 C 2977.182 8576.911 2957.946 8554.983 2948.131 8528.657 C 2925.14 8467.015 2975.163 8395.378 3042.299 8417.452 C 3115.779 8441.575 3176.963 8465.207 3256.144 8444.978" style="fill: rgb(121, 124, 153); fill-opacity: 1; fill-rule: nonzero; stroke: none;" id="path164" transform="matrix(0.13333330353101047, 0, 0, -0.13333330353101044, 397.577868793825, 697.9470696776193)"/><path d="M 4025.002 8123.611 C 4025.002 8046.449 4087.529 7983.884 4164.691 7983.884 C 4241.853 7983.884 4304.421 8046.449 4304.421 8123.611 C 4304.421 8200.773 4241.853 8263.305 4164.691 8263.305 C 4087.529 8263.305 4025.002 8200.773 4025.002 8123.611" style="fill: rgb(64, 44, 73); fill-opacity: 1; fill-rule: nonzero; stroke: none;" id="path166" transform="matrix(0.13333330353101047, 0, 0, -0.13333330353101044, 397.577868793825, 697.9470696776193)"/><path d="M 4070.95 8444.978 C 4040.98 8437.359 4009.199 8424.82 3980.325 8435.803 C 3947.377 8448.272 3931.718 8489.191 3939.264 8523.627 C 3946.774 8558.027 3972.353 8585.945 4001.051 8606.385 C 4096.601 8674.445 4237.748 8669.45 4328.192 8594.803 C 4349.91 8576.911 4369.111 8554.983 4378.926 8528.657 C 4401.92 8467.015 4351.894 8395.378 4284.758 8417.452 C 4211.315 8441.575 4150.097 8465.207 4070.95 8444.978" style="fill: rgb(121, 124, 153); fill-opacity: 1; fill-rule: nonzero; stroke: none;" id="path168" transform="matrix(0.13333330353101047, 0, 0, -0.13333330353101044, 397.577868793825, 697.9470696776193)"/><path d="M 3058.382 7667.583 C 2842.168 7702.301 2491.644 7702.301 2275.427 7667.583 C 2491.644 7632.863 2842.168 7632.863 3058.382 7667.583" style="fill: rgb(199, 210, 215); fill-opacity: 1; fill-rule: nonzero; stroke: none;" id="path170" transform="matrix(0.13333330353101047, 0, 0, -0.13333330353101044, 397.577868793825, 697.9470696776193)"/><path d="M 3042.264 7754.946 C 2844.825 7849.648 2508.684 7949.199 2291.547 7977.33 C 2488.987 7882.667 2825.091 7783.077 3042.264 7754.946" style="fill: rgb(199, 210, 215); fill-opacity: 1; fill-rule: nonzero; stroke: none;" id="path172" transform="matrix(0.13333330353101047, 0, 0, -0.13333330353101044, 397.577868793825, 697.9470696776193)"/><path d="M 3042.264 7580.182 C 2825.091 7552.051 2488.987 7452.499 2291.547 7357.801 C 2508.684 7385.929 2844.825 7485.484 3042.264 7580.182" style="fill: rgb(199, 210, 215); fill-opacity: 1; fill-rule: nonzero; stroke: none;" id="path174" transform="matrix(0.13333330353101047, 0, 0, -0.13333330353101044, 397.577868793825, 697.9470696776193)"/><path d="M 4268.674 7667.583 C 4484.892 7702.301 4835.45 7702.301 5051.629 7667.583 C 4835.45 7632.863 4484.892 7632.863 4268.674 7667.583" style="fill: rgb(199, 210, 215); fill-opacity: 1; fill-rule: nonzero; stroke: none;" id="path176" transform="matrix(0.13333330353101047, 0, 0, -0.13333330353101044, 397.577868793825, 697.9470696776193)"/><path d="M 4284.793 7754.946 C 4482.269 7849.648 4818.338 7949.199 5035.513 7977.33 C 4838.07 7882.667 4501.966 7783.077 4284.793 7754.946" style="fill: rgb(199, 210, 215); fill-opacity: 1; fill-rule: nonzero; stroke: none;" id="path178" transform="matrix(0.13333330353101047, 0, 0, -0.13333330353101044, 397.577868793825, 697.9470696776193)"/><path d="M 4284.793 7580.182 C 4501.966 7552.051 4838.07 7452.499 5035.513 7357.801 C 4818.338 7385.929 4482.269 7485.484 4284.793 7580.182" style="fill: rgb(199, 210, 215); fill-opacity: 1; fill-rule: nonzero; stroke: none;" id="path180" transform="matrix(0.13333330353101047, 0, 0, -0.13333330353101044, 397.577868793825, 697.9470696776193)"/><path d="M 3850.057 7803.733 L 3477.035 7803.733 C 3410.149 7803.733 3375.321 7735.496 3420.707 7693.41 L 3502.793 7617.238 C 3546.119 7577.062 3604.826 7556.941 3663.528 7556.941 C 3722.231 7556.941 3780.972 7577.062 3824.267 7617.238 L 3906.388 7693.41 C 3951.736 7735.496 3916.908 7803.733 3850.057 7803.733" style="fill: rgb(64, 44, 73); fill-opacity: 1; fill-rule: nonzero; stroke: none;" id="path182" transform="matrix(0.13333330353101047, 0, 0, -0.13333330353101044, 397.577868793825, 697.9470696776193)"/><path d="M 3151.559 8953.299 C 3169.805 8921.767 3208.987 8907.526 3245.372 8908.127 C 3281.757 8908.729 3316.69 8921.482 3351.442 8932.326 C 3554.267 8995.562 3775.976 8996.805 3979.51 8935.761 C 4004.984 8928.11 4030.598 8919.429 4057.205 8918.439 C 4083.848 8917.41 4112.259 8925.311 4129.406 8945.68 C 4153.994 8974.945 4147.298 9021.427 4123.738 9051.541 C 4100.888 9080.839 4066.098 9097.809 4031.517 9111.554 C 3971.361 9120.163 3910.354 9125.053 3848.676 9125.053 L 3487.383 9125.053 C 3435.585 9125.053 3384.179 9121.902 3333.378 9115.806 C 3305.531 9105.39 3278.037 9093.874 3251.254 9080.839 C 3204.595 9058.166 3111.031 9023.161 3151.559 8953.299" style="fill: rgb(121, 124, 153); fill-opacity: 1; fill-rule: nonzero; stroke: none;" id="path184" transform="matrix(0.13333330353101047, 0, 0, -0.13333330353101044, 397.577868793825, 697.9470696776193)"/><path d="M 3361.648 8756.604 C 3372.134 8738.569 3394.524 8730.42 3415.391 8730.739 C 3436.224 8731.095 3456.24 8738.392 3476.151 8744.593 C 3592.282 8780.836 3719.293 8781.545 3835.816 8746.575 C 3850.446 8742.183 3865.115 8737.221 3880.346 8736.655 C 3895.581 8736.054 3911.844 8740.588 3921.693 8752.245 C 3935.792 8769.001 3931.932 8795.609 3918.433 8812.897 C 3904.972 8830.15 3884.246 8840.001 3863.872 8848.005 C 3721.559 8903.912 3556.111 8896.473 3418.755 8829.656 C 3392.043 8816.688 3338.44 8796.636 3361.648 8756.604" style="fill: rgb(121, 124, 153); fill-opacity: 1; fill-rule: nonzero; stroke: none;" id="path186" transform="matrix(0.13333330353101047, 0, 0, -0.13333330353101044, 397.577868793825, 697.9470696776193)"/><path d="M 3129.028 6200.9 C 3129.028 6047.356 2973.428 5922.899 2781.513 5922.899 C 2589.567 5922.899 2433.965 6047.356 2433.965 6200.9 C 2433.965 6354.443 2589.567 6478.902 2781.513 6478.902 C 2973.428 6478.902 3129.028 6354.443 3129.028 6200.9" style="fill: rgb(251, 238, 209); fill-opacity: 1; fill-rule: nonzero; stroke: none;" id="path188" transform="matrix(0.13333330353101047, 0, 0, -0.13333330353101044, 397.577868793825, 697.9470696776193)"/><path d="M 4207.029 6200.9 C 4207.029 6047.356 4362.629 5922.899 4554.544 5922.899 C 4746.492 5922.899 4902.092 6047.356 4902.092 6200.9 C 4902.092 6354.443 4746.492 6478.902 4554.544 6478.902 C 4362.629 6478.902 4207.029 6354.443 4207.029 6200.9" style="fill: rgb(251, 238, 209); fill-opacity: 1; fill-rule: nonzero; stroke: none;" id="path190" transform="matrix(0.13333330353101047, 0, 0, -0.13333330353101044, 397.577868793825, 697.9470696776193)"/><path d="M 8495.264 10392.274 C 8495.264 10486.196 8594.109 10547.275 8678.072 10505.292 L 9313.298 10187.926 C 9692.164 9998.635 9958.12 9640.176 10029.435 9222.728 L 10240.837 7985.37 C 10257.521 7887.838 10154.96 7813.582 10067.487 7859.815 L 9345.96 8241.34 L 8495.264 10392.274" style="fill: rgb(64, 44, 73); fill-opacity: 1; fill-rule: nonzero; stroke: none;" id="path192" transform="matrix(0.13333330353101047, 0, 0, -0.13333330353101044, 397.577868793825, 697.9470696776193)"/><path d="M 6805.6 7845.714 L 6879.999 7491.366 C 6930.872 7248.931 6826.999 7000.224 6618.787 6866.025 L 6376.46 6709.822 C 6247.008 6626.354 6128.182 6527.368 6022.675 6415.098 L 5925.887 6312.037 L 10084.741 6378.18 L 9562.462 6942.265 C 9435.452 7079.442 9344.545 7246.025 9297.958 7427.062 L 9154.578 7983.884 L 6805.6 7845.714" style="fill: rgb(166, 79, 90); fill-opacity: 1; fill-rule: nonzero; stroke: none;" id="path194" transform="matrix(0.13333330353101047, 0, 0, -0.13333330353101044, 397.577868793825, 697.9470696776193)"/><path d="M 7890.402 6956.047 C 7733.529 6956.047 7579.452 7009.33 7454.815 7109.98 L 6859.059 7591.198 L 6805.6 7845.714 L 9154.578 7983.884 L 9283.323 7483.85 C 9165.846 7325.136 8996.535 7210.916 8802.992 7162.628 L 8058.26 6976.701 C 8002.745 6962.847 7946.414 6956.047 7890.402 6956.047" style="fill: rgb(115, 61, 81); fill-opacity: 1; fill-rule: nonzero; stroke: none;" id="path196" transform="matrix(0.13333330353101047, 0, 0, -0.13333330353101044, 397.577868793825, 697.9470696776193)"/><path d="M 6280.805 10016.527 C 6672.178 10243.727 7470.792 10456.931 8027.404 10531.081 C 8297.01 10567.005 8563.072 10445.171 8710.667 10216.767 L 9530.753 8947.876 C 9667.895 8735.629 9678.596 8465.526 9558.562 8243.145 L 9453.167 8047.758 C 9313.794 7789.455 9070.296 7603.423 8784.462 7536.889 L 8108.567 7379.517 C 7883.92 7327.227 7648.11 7352.343 7439.546 7450.832 L 6442.498 7921.495 L 6280.805 10016.527" style="fill: rgb(166, 79, 90); fill-opacity: 1; fill-rule: nonzero; stroke: none;" id="path198" transform="matrix(0.13333330353101047, 0, 0, -0.13333330353101044, 397.577868793825, 697.9470696776193)"/><path d="M 9530.753 8947.876 L 9453.591 9067.233 C 9212.329 9082.115 8936.413 9063.727 8654.83 9017.988 C 8460.369 8986.39 8271.855 9096.393 8200.964 9280.192 C 8036.188 9707.135 7770.019 10168.795 7577.22 10451.867 C 7488.118 10432.913 7397.421 10411.796 7306.939 10388.911 C 7477.456 10101.024 7672.946 9611.973 7787.98 9164.802 C 7836.234 8977.174 7744.332 8781.013 7567.196 8702.573 C 7305.028 8586.478 7080.592 8447.848 6929.454 8293.56 C 6887.082 8250.303 6873.123 8186.709 6892.892 8129.455 L 6981.712 7872.003 C 7035.739 7715.375 7150.701 7587.159 7300.562 7516.411 L 7439.546 7450.832 C 7648.11 7352.343 7883.92 7327.227 8108.567 7379.517 L 8784.462 7536.889 C 9070.296 7603.423 9313.794 7789.455 9453.167 8047.758 L 9558.562 8243.145 C 9678.559 8465.526 9667.895 8735.629 9530.753 8947.876" style="fill: rgb(244, 175, 154); fill-opacity: 1; fill-rule: nonzero; stroke: none;" id="path200" transform="matrix(0.13333330353101047, 0, 0, -0.13333330353101044, 397.577868793825, 697.9470696776193)"/><path d="M 7289.297 9214.404 C 7289.297 9133.307 7223.577 9067.59 7142.519 9067.59 C 7061.424 9067.59 6995.67 9133.307 6995.67 9214.404 C 6995.67 9295.462 7061.424 9361.179 7142.519 9361.179 C 7223.577 9361.179 7289.297 9295.462 7289.297 9214.404" style="fill: rgb(64, 44, 73); fill-opacity: 1; fill-rule: nonzero; stroke: none;" id="path202" transform="matrix(0.13333330353101047, 0, 0, -0.13333330353101044, 397.577868793825, 697.9470696776193)"/><path d="M 8736.103 9548.417 C 8736.103 9467.359 8670.386 9401.604 8589.327 9401.604 C 8508.231 9401.604 8442.475 9467.359 8442.475 9548.417 C 8442.475 9629.512 8508.231 9695.231 8589.327 9695.231 C 8670.386 9695.231 8736.103 9629.512 8736.103 9548.417" style="fill: rgb(64, 44, 73); fill-opacity: 1; fill-rule: nonzero; stroke: none;" id="path204" transform="matrix(0.13333330353101047, 0, 0, -0.13333330353101044, 397.577868793825, 697.9470696776193)"/><path d="M 7075.772 9741.498 C 7105.109 9743.308 7134.76 9742.455 7163.564 9748.337 C 7192.33 9754.181 7221.029 9767.859 7237.396 9792.267 C 7262.905 9830.389 7250.15 9885.16 7218.014 9917.967 C 7185.881 9950.701 7139.294 9965.084 7093.807 9971.036 C 6973.069 9986.872 6846.343 9949.495 6753.451 9870.742 C 6725.248 9846.754 6699.597 9818.521 6684.933 9784.508 C 6670.231 9750.5 6667.641 9709.97 6684.187 9676.843 C 6698.573 9648.111 6733.149 9622.922 6766.524 9623.949 C 6799.115 9624.941 6826.075 9655.763 6852.897 9671.885 C 6920.244 9712.343 6997.3 9736.683 7075.772 9741.498" style="fill: rgb(244, 175, 154); fill-opacity: 1; fill-rule: nonzero; stroke: none;" id="path206" transform="matrix(0.13333330353101047, 0, 0, -0.13333330353101044, 397.577868793825, 697.9470696776193)"/><path d="M 8340.516 10060.599 C 8318.126 10051.246 8296.691 10039.412 8272.85 10033.849 C 8249.004 10028.324 8221.725 10029.742 8198.592 10045.403 C 8162.526 10069.81 8147.078 10123.413 8155.901 10164.651 C 8164.688 10205.889 8192.496 10236.145 8223.248 10258.462 C 8304.911 10317.736 8415.126 10331.872 8519.143 10296.372 C 8550.817 10285.603 8582.455 10270.013 8608.706 10245.18 C 8634.923 10220.381 8655.188 10185.234 8658.022 10149.487 C 8660.465 10118.488 8646.435 10083.132 8621.422 10071.545 C 8596.98 10060.21 8563.144 10077.606 8536.111 10081.926 C 8468.232 10092.803 8400.461 10085.684 8340.516 10060.599" style="fill: rgb(244, 175, 154); fill-opacity: 1; fill-rule: nonzero; stroke: none;" id="path208" transform="matrix(0.13333330353101047, 0, 0, -0.13333330353101044, 397.577868793825, 697.9470696776193)"/><path d="M 7208.451 8199.497 L 7622.212 8073.586 C 7804.702 8018.071 8002.992 8063.913 8142.544 8193.934 L 8240.751 8285.412 C 8300.873 8341.424 8320.747 8428.468 8290.809 8504.992 L 8229.731 8661.196 L 8302.077 8686.739 L 8383.063 8502.762 C 8410.805 8439.806 8468.87 8395.45 8536.893 8385.316 L 8660.571 8366.894 C 8873.883 8335.081 9085.423 8434.492 9197.094 8618.963 L 9310.569 8806.448 L 9146.324 8281.335 C 9079.011 8066.041 8906.334 7900.131 8688.558 7841.462 L 8404.641 7765.008 C 8243.266 7721.537 8071.406 7740.987 7923.811 7819.392 L 7208.451 8199.497" style="fill: rgb(64, 44, 73); fill-opacity: 1; fill-rule: nonzero; stroke: none;" id="path210" transform="matrix(0.13333330353101047, 0, 0, -0.13333330353101044, 397.577868793825, 697.9470696776193)"/><path d="M 9122.799 7571.218 C 9100.943 7681.647 9076.426 7792.642 9029.092 7894.782 C 9012.337 7930.883 8992.319 7965.848 8969.255 7998.515 C 8927.169 8058.175 8874.629 8109.938 8810.998 8145.152 C 8661.492 8227.98 8472.414 8208.425 8316.812 8137.675 C 8213.047 8090.488 8116.505 8019.169 8060.315 7919.9 C 8036.153 7877.176 8021.274 7828.745 8016.242 7779.749 C 8109.382 7747.259 8208.579 7735.745 8306.539 7746.551 L 8306.506 7746.551 L 8306.506 7746.515 C 8340.8 7609.09 8351.355 7452.499 8365.704 7311.601 C 8380.054 7170.706 8419.872 7023.465 8524.067 6927.528 C 8595.457 6861.806 8693.769 6826.24 8790.661 6831.126 C 8887.592 6835.98 8981.866 6881.223 9046.275 6953.78 C 9117.802 7034.271 9150.645 7143.389 9156.597 7250.878 C 9162.551 7358.367 9143.701 7465.606 9122.799 7571.218" style="fill: rgb(227, 107, 133); fill-opacity: 1; fill-rule: nonzero; stroke: none;" id="path212" transform="matrix(0.13333330353101047, 0, 0, -0.13333330353101044, 397.577868793825, 697.9470696776193)"/><path d="M 8396.456 9007.183 C 8193.278 8982.599 7994.314 8922.724 7811.221 8831.213 C 7743.874 8797.523 7749.151 8699.35 7819.336 8672.107 C 7889.445 8644.899 7961.648 8623.217 8033.71 8612.977 C 8109.454 8602.208 8188.705 8598.913 8260.378 8625.588 C 8335.024 8653.4 8395.108 8711.927 8438.898 8778.498 C 8460.155 8810.844 8476.17 8850.806 8490.376 8891.902 C 8511.598 8953.476 8461.182 9015.012 8396.456 9007.183" style="fill: rgb(64, 44, 73); fill-opacity: 1; fill-rule: nonzero; stroke: none;" id="path214" transform="matrix(0.13333330353101047, 0, 0, -0.13333330353101044, 397.577868793825, 697.9470696776193)"/><path d="M 5749.493 9779.088 L 6133.778 10137.547 C 6212.784 10211.237 6341.99 10164.332 6355.273 10057.128 L 6543.434 8541.801 C 6588.035 8182.599 6498.333 7819.531 6291.609 7522.398 L 6174.522 7354.115 C 6113.515 7266.432 5978.392 7286.66 5945.832 7388.409 L 5493.809 8798.158 C 5381.962 9147.054 5481.55 9529.181 5749.493 9779.088" style="fill: rgb(64, 44, 73); fill-opacity: 1; fill-rule: nonzero; stroke: none;" id="path216" transform="matrix(0.13333330353101047, 0, 0, -0.13333330353101044, 397.577868793825, 697.9470696776193)"/><path d="M 6959.072 6328.439 C 7028.618 6474.901 7174.014 6570.379 7336.062 6575.975 L 7730.092 6589.545 C 7831.095 6593.015 7925.441 6539.061 7973.623 6450.206 L 8082.918 6248.587 C 8124.37 6172.135 8120.188 6079.028 8071.972 6006.648 C 8036.367 5953.151 7980.427 5916.589 7917.187 5905.501 L 7620.62 5853.386 C 7438.66 5821.395 7254.79 5898.557 7150.101 6050.757 L 6959.072 6328.439" style="fill: rgb(64, 44, 73); fill-opacity: 1; fill-rule: nonzero; stroke: none;" id="path218" transform="matrix(0.13333330353101047, 0, 0, -0.13333330353101044, 397.577868793825, 697.9470696776193)"/><path d="M 9508.609 6328.439 C 9578.156 6474.901 9723.516 6570.379 9885.565 6575.975 L 10279.628 6589.545 C 10380.636 6593.015 10474.943 6539.061 10523.162 6450.206 L 10632.457 6248.587 C 10673.906 6172.135 10669.69 6079.028 10621.51 6006.648 C 10585.905 5953.151 10529.963 5916.589 10466.723 5905.501 L 10170.156 5853.386 C 9988.164 5821.395 9804.292 5898.557 9699.604 6050.757 L 9508.609 6328.439" style="fill: rgb(64, 44, 73); fill-opacity: 1; fill-rule: nonzero; stroke: none;" id="path220" transform="matrix(0.13333330353101047, 0, 0, -0.13333330353101044, 397.577868793825, 697.9470696776193)"/><path d="M 11676.587 -876.862 L -3045.073 -876.862 C -3115.506 -876.862 -3172.58 -819.755 -3172.58 -749.321 C -3172.58 -678.89 -3115.506 -621.816 -3045.073 -621.816 L 11676.587 -621.816 C 11747.021 -621.816 11804.095 -678.89 11804.095 -749.321 C 11804.095 -819.755 11747.021 -876.862 11676.587 -876.862" style="fill-opacity: 1; fill-rule: nonzero; stroke: none; fill: rgb(170, 128, 51);" id="path222" transform="matrix(0.13333330353101047, 0, 0, -0.13333330353101044, 397.577868793825, 697.9470696776193)"/><path d="M 11390.499 301.094 C 11407.292 261.39 11450.441 239.906 11492.245 250.513 C 11541.279 262.979 11624.571 286.756 11765.928 331.775 C 12097.992 437.569 12130.411 537.932 12136.507 547.537 C 12227.519 691.592 12166.724 876.727 12030.787 944.291 C 11894.815 1011.853 11771.88 940.966 11771.88 940.966 C 11771.88 940.966 11754.13 1081.792 11618.157 1149.343 C 11482.186 1216.919 11297.889 1153.495 11238.086 993.93 C 11234.118 983.26 11173.677 896.85 11289.954 568.296 C 11339.483 428.4 11370.8 347.688 11390.499 301.094" style="fill-opacity: 1; fill-rule: nonzero; stroke: none; fill: rgb(236, 168, 94);" id="path294" transform="matrix(0.13333330353101047, 0, 0, -0.13333330353101044, 397.577868793825, 697.9470696776193)"/><path d="M 11471.522 1382.147 C 11474.428 1274.519 11408.707 1185.379 11324.709 1183.112 C 11240.671 1180.838 11170.171 1266.257 11167.267 1373.893 C 11164.324 1481.561 11230.079 1570.701 11314.114 1572.957 C 11398.115 1575.229 11468.58 1489.811 11471.522 1382.147" style="fill-opacity: 1; fill-rule: nonzero; stroke: none; fill: rgb(236, 168, 94);" id="path296" transform="matrix(0.13333330353101047, 0, 0, -0.13333330353101044, 397.577868793825, 697.9470696776193)"/><path d="M 11915.008 1385.619 C 11874.017 1256.236 11758.95 1177.339 11657.942 1209.333 C 11557.01 1241.32 11508.367 1372.121 11549.358 1501.464 C 11590.382 1630.818 11705.452 1709.755 11806.384 1677.79 C 11907.355 1645.765 11955.964 1514.97 11915.008 1385.619" style="fill-opacity: 1; fill-rule: nonzero; stroke: none; fill: rgb(236, 168, 94);" id="path298" transform="matrix(0.13333330353101047, 0, 0, -0.13333330353101044, 397.577868793825, 697.9470696776193)"/><path style="fill-opacity: 1; fill-rule: nonzero; stroke: none; fill: rgb(236, 168, 94);" id="path300" transform="matrix(0.13333330353101047, 0, 0, -0.13333330353101044, 397.577868793825, 697.9470696776193)" d="M 12039.784 1323.59 C 12118.119 1434.401 12251.75 1474.645 12338.265 1413.529 C 12424.709 1352.322 12431.334 1212.977 12353.005 1102.166 C 12274.604 991.408 12141.074 951.1 12054.525 1012.213 C 11968.08 1073.423 11961.455 1212.795 12039.784 1323.59"/><path d="M 12482.102 720.595 C 12394.525 657.891 12283.886 662.428 12234.957 730.837 C 12185.998 799.213 12217.349 905.358 12304.894 968.025 C 12392.471 1030.814 12503.042 1026.205 12552.039 957.822 C 12601.002 889.515 12569.612 783.312 12482.102 720.595" style="fill-opacity: 1; fill-rule: nonzero; stroke: none; fill: rgb(236, 168, 94);" id="path302" transform="matrix(0.13333330353101047, 0, 0, -0.13333330353101044, 397.577868793825, 697.9470696776193)"/><path d="M -4037.968 173.825 C -3980.966 144.031 -3910.869 160.363 -3872.879 212.231 C -3828.304 273.094 -3755.055 379.518 -3635.138 565.623 C -3353.511 1002.663 -3411.542 1148.909 -3413.675 1165.773 C -3445.654 1417.913 -3691.451 1573.263 -3912.033 1521.894 C -4132.608 1470.525 -4206.76 1272.197 -4206.76 1272.197 C -4206.76 1272.197 -4360.927 1417.347 -4581.519 1365.975 C -4802.101 1314.606 -4953.972 1066.609 -4871.23 826.302 C -4865.705 810.216 -4853.155 653.415 -4407.4 385.791 C -4217.596 271.818 -4104.864 208.687 -4037.968 173.825" style="fill-opacity: 1; fill-rule: nonzero; stroke: none; fill: rgb(236, 168, 94);" id="path304" transform="matrix(0.13333330353101047, 0, 0, -0.13333330353101044, 397.577868793825, 697.9470696776193)"/><path d="M -4971.301 1494.648 C -4865.722 1373.557 -4856.725 1208.57 -4951.26 1126.164 C -5045.777 1043.757 -5207.986 1075.147 -5313.565 1196.239 C -5419.143 1317.297 -5428.127 1482.284 -5333.604 1564.657 C -5239.115 1647.061 -5076.893 1615.744 -4971.301 1494.648" style="fill-opacity: 1; fill-rule: nonzero; stroke: none; fill: rgb(236, 168, 94);" id="path306" transform="matrix(0.13333330353101047, 0, 0, -0.13333330353101044, 397.577868793825, 697.9470696776193)"/><path d="M -4464.33 1919.715 C -4388.648 1731.948 -4446.133 1531.848 -4592.662 1472.791 C -4739.204 1413.767 -4919.376 1518.069 -4995.061 1705.836 C -5070.715 1893.603 -5013.262 2093.665 -4866.702 2152.758 C -4720.161 2211.818 -4540.006 2107.518 -4464.33 1919.715" style="fill-opacity: 1; fill-rule: nonzero; stroke: none; fill: rgb(236, 168, 94);" id="path308" transform="matrix(0.13333330353101047, 0, 0, -0.13333330353101044, 397.577868793825, 697.9470696776193)"/><path d="M -4261.825 1966.869 C -4276.955 2168.737 -4161.409 2341.944 -4003.8 2353.778 C -3846.186 2365.47 -3706.273 2211.393 -3691.174 2009.525 C -3676.169 1807.62 -3791.59 1634.412 -3949.189 1622.583 C -4106.815 1610.924 -4246.726 1764.967 -4261.825 1966.869" style="fill-opacity: 1; fill-rule: nonzero; stroke: none; fill: rgb(236, 168, 94);" id="path310" transform="matrix(0.13333330353101047, 0, 0, -0.13333330353101044, 397.577868793825, 697.9470696776193)"/><path d="M -3180.338 1693.011 C -3221.543 1537.767 -3353.155 1437.931 -3474.396 1470.169 C -3595.627 1502.372 -3660.382 1654.253 -3619.184 1809.497 C -3577.986 1964.887 -3446.373 2064.613 -3325.133 2032.447 C -3203.932 2000.314 -3139.137 1848.292 -3180.338 1693.011" style="fill-opacity: 1; fill-rule: nonzero; stroke: none; fill: rgb(236, 168, 94);" id="path312" transform="matrix(0.13333330353101047, 0, 0, -0.13333330353101044, 397.577868793825, 697.9470696776193)"/><path d="M -4087.98 9419.913 C -4104.752 9380.151 -4147.941 9358.732 -4189.709 9369.317 C -4238.74 9381.746 -4322.024 9405.524 -4463.405 9450.593 C -4795.469 9556.339 -4827.871 9656.713 -4833.958 9666.345 C -4925.006 9810.353 -4864.212 9995.54 -4728.273 10063.101 C -4592.315 10130.661 -4469.357 10059.772 -4469.357 10059.772 C -4469.357 10059.772 -4451.587 10200.595 -4315.618 10268.122 C -4179.66 10335.683 -3995.356 10272.266 -3935.583 10112.698 C -3931.585 10102.073 -3871.162 10015.628 -3987.424 9687.103 C -4036.926 9547.161 -4068.289 9466.469 -4087.98 9419.913" style="fill-opacity: 1; fill-rule: nonzero; stroke: none; fill: rgb(236, 168, 94);" id="path314" transform="matrix(0.13333330353101047, 0, 0, -0.13333330353101044, 397.577868793825, 697.9470696776193)"/><path d="M -4169.003 10500.918 C -4171.912 10393.29 -4106.177 10304.151 -4022.159 10301.92 C -3938.141 10299.654 -3867.663 10385.069 -3864.744 10492.701 C -3861.818 10600.33 -3927.57 10689.465 -4011.587 10691.732 C -4095.592 10694.003 -4166.072 10608.584 -4169.003 10500.918" style="fill-opacity: 1; fill-rule: nonzero; stroke: none; fill: rgb(236, 168, 94);" id="path316" transform="matrix(0.13333330353101047, 0, 0, -0.13333330353101044, 397.577868793825, 697.9470696776193)"/><path d="M -4612.465 10504.39 C -4571.487 10375.007 -4456.399 10296.11 -4355.419 10328.101 C -4254.49 10360.128 -4205.847 10490.892 -4246.838 10620.241 C -4287.842 10749.624 -4402.915 10828.52 -4503.855 10796.564 C -4604.812 10764.573 -4653.446 10633.773 -4612.465 10504.39" style="fill-opacity: 1; fill-rule: nonzero; stroke: none; fill: rgb(236, 168, 94);" id="path318" transform="matrix(0.13333330353101047, 0, 0, -0.13333330353101044, 397.577868793825, 697.9470696776193)"/><path d="M -4737.266 10442.357 C -4815.596 10553.21 -4949.224 10593.458 -5035.732 10532.307 C -5122.211 10471.09 -5128.811 10331.787 -5050.485 10220.969 C -4972.084 10110.183 -4838.528 10069.868 -4752.018 10131.015 C -4665.537 10192.198 -4658.937 10331.573 -4737.266 10442.357" style="fill-opacity: 1; fill-rule: nonzero; stroke: none; fill: rgb(236, 168, 94);" id="path320" transform="matrix(0.13333330353101047, 0, 0, -0.13333330353101044, 397.577868793825, 697.9470696776193)"/><path d="M -5179.562 9839.372 C -5091.989 9776.695 -4981.357 9781.236 -4932.438 9849.615 C -4883.489 9917.987 -4914.835 10024.129 -5002.368 10086.838 C -5089.955 10149.579 -5200.541 10144.974 -5249.52 10076.635 C -5298.465 10008.293 -5267.096 9902.081 -5179.562 9839.372" style="fill-opacity: 1; fill-rule: nonzero; stroke: none; fill: rgb(236, 168, 94);" id="path322" transform="matrix(0.13333330353101047, 0, 0, -0.13333330353101044, 397.577868793825, 697.9470696776193)"/><path d="M 11851.873 7741.29 C 11733.329 7789.614 11595.978 7644.891 11480.269 7692.117 C 11391.591 7728.288 11352.301 7832.943 11388.51 7921.584 C 11424.648 8010.295 11537.343 8039.56 11573.09 8024.996 C 11537.343 8039.56 11477.329 8139.286 11513.464 8227.999 C 11549.673 8316.641 11650.89 8363.972 11739.567 8327.801 C 11855.345 8280.575 11852.225 8081.113 11970.769 8032.721 L 12777.854 7703.452 C 12896.394 7655.094 13033.748 7799.853 13149.491 7752.628 C 13238.169 7716.49 13277.388 7611.835 13241.25 7523.196 C 13205.045 7434.484 13092.417 7405.185 13056.707 7419.782 C 13092.417 7405.185 13152.434 7305.455 13116.225 7216.743 C 13080.089 7128.104 12978.837 7080.77 12890.16 7116.979 C 12774.417 7164.17 12777.498 7363.7 12658.958 7412.024 L 11851.873 7741.29" style="fill-opacity: 1; fill-rule: evenodd; stroke: none; fill: rgb(236, 168, 94);" id="path324" transform="matrix(0.13333330353101047, 0, 0, -0.13333330353101044, 397.577868793825, 697.9470696776193)"/><path d="M 11104.959 12702.71 C 11191.37 12737.961 11291.521 12632.421 11375.946 12666.82 C 11440.602 12693.214 11469.229 12769.528 11442.872 12834.182 C 11416.479 12898.877 11334.284 12920.203 11308.28 12909.574 C 11334.284 12920.203 11378.109 12992.935 11351.681 13057.625 C 11325.32 13122.248 11251.488 13156.791 11186.832 13130.396 C 11102.407 13095.996 11104.712 12950.493 11018.23 12915.241 L 10429.703 12675.149 C 10343.259 12639.859 10243.066 12745.435 10158.68 12710.964 C 10093.986 12684.606 10065.396 12608.293 10091.757 12543.638 C 10118.15 12478.982 10200.27 12457.618 10226.345 12468.213 C 10200.27 12457.618 10156.517 12384.885 10182.911 12320.195 C 10209.27 12255.539 10283.1 12221.031 10347.793 12247.424 C 10432.18 12281.862 10429.951 12427.327 10516.358 12462.613 L 11104.959 12702.71" style="fill-opacity: 1; fill-rule: evenodd; stroke: none; fill: rgb(236, 168, 94);" id="path326" transform="matrix(0.13333330353101047, 0, 0, -0.13333330353101044, 397.577868793825, 697.9470696776193)"/></svg>