<svg xmlns="http://www.w3.org/2000/svg" xmlns:xlink="http://www.w3.org/1999/xlink" width="100" zoomAndPan="magnify" viewBox="0 0 75 74.999997" height="100" preserveAspectRatio="xMidYMid meet" version="1.0"><defs><clipPath id="757a8ddc3d"><path d="M 0 2 L 74.890625 2 L 74.890625 73.53125 L 0 73.53125 Z M 0 2 " clip-rule="nonzero"/></clipPath></defs><g clip-path="url(#757a8ddc3d)"><path fill="#fbbf24" d="M 50.203125 73.742188 C 50.046875 73.738281 49.886719 73.730469 49.726562 73.71875 C 43.386719 72.625 39.902344 65.921875 39.394531 60.007812 C 38.65625 54.644531 41.023438 47.75 46.914062 46.546875 C 47.765625 46.382812 48.65625 46.457031 49.488281 46.683594 C 56.582031 49.0625 59.757812 57.464844 58.730469 64.421875 C 58.433594 68.917969 55.046875 73.804688 50.203125 73.742188 Z M 23.324219 73.453125 C 19.378906 73.355469 16.308594 69.359375 15.683594 65.601562 C 14.367188 58.152344 17.753906 48.902344 25.511719 46.546875 C 26.238281 46.386719 26.992188 46.371094 27.726562 46.484375 C 32.96875 47.359375 35.191406 53.238281 34.96875 57.984375 C 34.8125 64.242188 31.5625 71.484375 25.058594 73.242188 C 24.464844 73.402344 23.886719 73.46875 23.324219 73.453125 Z M 67.382812 52.304688 C 60.5625 51.894531 55.886719 45.089844 55.21875 38.738281 C 54.316406 34.152344 56.761719 28.023438 61.988281 27.660156 C 69.28125 27.75 74.253906 35.539062 74.460938 42.242188 C 74.921875 46.675781 72.3125 52.058594 67.382812 52.304688 Z M 7.6875 50.792969 C 4.785156 50.820312 1.933594 49.082031 0.984375 46.132812 C -1.546875 38.242188 3.535156 28.25 11.890625 26.589844 C 15.378906 25.992188 18.441406 28.671875 19.308594 31.894531 C 21.140625 38.789062 17.375 46.789062 11.007812 49.917969 C 9.96875 50.5 8.824219 50.785156 7.6875 50.792969 Z M 38.261719 36.644531 C 32.574219 36.632812 26.796875 33.746094 23.113281 29.449219 C 19.136719 24.441406 15.875 18.613281 14.601562 12.292969 C 13.050781 7.746094 16.5625 2.507812 21.425781 2.476562 C 27.277344 2.3125 32.304688 6.332031 38.125 6.628906 C 43.058594 7.382812 47.480469 4.816406 51.917969 3.136719 C 55.695312 1.519531 60.917969 2.136719 62.847656 6.203125 C 64.363281 10.347656 62.128906 14.769531 60.28125 18.449219 C 56.507812 24.425781 52.464844 30.703125 46.277344 34.433594 C 43.796875 35.972656 41.039062 36.652344 38.261719 36.644531 Z M 38.261719 36.644531 " fill-opacity="1" fill-rule="nonzero"/></g></svg>